<svg xmlns="http://www.w3.org/2000/svg" version="1.1" xmlns:xlink="http://www.w3.org/1999/xlink" xmlns:svgjs="http://svgjs.dev/svgjs" width="1440" height="560" preserveAspectRatio="none" viewBox="0 0 1440 560"><g mask="url(&quot;#SvgjsMask1254&quot;)" fill="none"><rect width="1440" height="560" x="0" y="0" fill="url(&quot;#SvgjsLinearGradient1255&quot;)"></rect><g mask="url(&quot;#SvgjsMask1256&quot;)"><path d="M1230.5 448.5L1345.5 448.5L1437.5 540.5L1437.5 563.5" stroke-width="3.83" stroke="#3a7cc3"></path><path d="M1224.75 448.5 a5.75 5.75 0 1 0 11.5 0 a5.75 5.75 0 1 0 -11.5 0zM1431.75 563.5 a5.75 5.75 0 1 0 11.5 0 a5.75 5.75 0 1 0 -11.5 0z" fill="#3a7cc3"></path><path d="M402.5 264.5L379.5 287.5L379.5 517.5L425.5 563.5L563.5 563.5" stroke-width="3.83" stroke="#3a7cc3"></path><path d="M396.75 264.5 a5.75 5.75 0 1 0 11.5 0 a5.75 5.75 0 1 0 -11.5 0zM557.75 563.5 a5.75 5.75 0 1 0 11.5 0 a5.75 5.75 0 1 0 -11.5 0z" fill="#3a7cc3"></path><path d="M287.5 563.5L11.5 563.5" stroke-width="3.83" stroke="#3a7cc3"></path><path d="M281.75 563.5 a5.75 5.75 0 1 0 11.5 0 a5.75 5.75 0 1 0 -11.5 0zM5.75 563.5 a5.75 5.75 0 1 0 11.5 0 a5.75 5.75 0 1 0 -11.5 0z" fill="#3a7cc3"></path><path d="M402.5 103.5L402.5 126.5L333.5 195.5L11.5 195.5" stroke-width="3.83" stroke="#3a7cc3"></path><path d="M396.75 103.5 a5.75 5.75 0 1 0 11.5 0 a5.75 5.75 0 1 0 -11.5 0zM5.75 195.5 a5.75 5.75 0 1 0 11.5 0 a5.75 5.75 0 1 0 -11.5 0z" fill="#3a7cc3"></path><path d="M149.5 540.5L11.5 540.5" stroke-width="3.83" stroke="#3a7cc3"></path><path d="M143.75 540.5 a5.75 5.75 0 1 0 11.5 0 a5.75 5.75 0 1 0 -11.5 0zM5.75 540.5 a5.75 5.75 0 1 0 11.5 0 a5.75 5.75 0 1 0 -11.5 0z" fill="#3a7cc3"></path><path d="M34.5 402.5L34.5 287.5L103.5 218.5L333.5 218.5L356.5 195.5" stroke-width="3.83" stroke="#3a7cc3"></path><path d="M28.75 402.5 a5.75 5.75 0 1 0 11.5 0 a5.75 5.75 0 1 0 -11.5 0zM350.75 195.5 a5.75 5.75 0 1 0 11.5 0 a5.75 5.75 0 1 0 -11.5 0z" fill="#3a7cc3"></path><path d="M678.5 264.5L678.5 11.5" stroke-width="3.83" stroke="#3a7cc3"></path><path d="M672.75 264.5 a5.75 5.75 0 1 0 11.5 0 a5.75 5.75 0 1 0 -11.5 0zM672.75 11.5 a5.75 5.75 0 1 0 11.5 0 a5.75 5.75 0 1 0 -11.5 0z" fill="#3a7cc3"></path><path d="M770.5 379.5L678.5 471.5L402.5 471.5" stroke-width="3.83" stroke="#3a7cc3"></path><path d="M764.75 379.5 a5.75 5.75 0 1 0 11.5 0 a5.75 5.75 0 1 0 -11.5 0zM396.75 471.5 a5.75 5.75 0 1 0 11.5 0 a5.75 5.75 0 1 0 -11.5 0z" fill="#3a7cc3"></path><path d="M609.5 172.5L609.5 333.5L540.5 402.5L425.5 402.5L402.5 425.5L402.5 448.5" stroke-width="3.83" stroke="#3a7cc3"></path><path d="M603.75 172.5 a5.75 5.75 0 1 0 11.5 0 a5.75 5.75 0 1 0 -11.5 0zM396.75 448.5 a5.75 5.75 0 1 0 11.5 0 a5.75 5.75 0 1 0 -11.5 0z" fill="#3a7cc3"></path><path d="M1138.5 471.5L1069.5 471.5L793.5 195.5L793.5 103.5" stroke-width="3.83" stroke="#3a7cc3"></path><path d="M1132.75 471.5 a5.75 5.75 0 1 0 11.5 0 a5.75 5.75 0 1 0 -11.5 0zM787.75 103.5 a5.75 5.75 0 1 0 11.5 0 a5.75 5.75 0 1 0 -11.5 0z" fill="#3a7cc3"></path><path d="M57.5 333.5L264.5 333.5L287.5 356.5L356.5 356.5" stroke-width="3.83" stroke="#3a7cc3"></path><path d="M51.75 333.5 a5.75 5.75 0 1 0 11.5 0 a5.75 5.75 0 1 0 -11.5 0zM350.75 356.5 a5.75 5.75 0 1 0 11.5 0 a5.75 5.75 0 1 0 -11.5 0z" fill="#3a7cc3"></path><path d="M425.5 57.5L448.5 34.5L448.5 11.5" stroke-width="3.83" stroke="#3a7cc3"></path><path d="M419.75 57.5 a5.75 5.75 0 1 0 11.5 0 a5.75 5.75 0 1 0 -11.5 0zM442.75 11.5 a5.75 5.75 0 1 0 11.5 0 a5.75 5.75 0 1 0 -11.5 0z" fill="#3a7cc3"></path><path d="M448.5 80.5L448.5 57.5L494.5 11.5L540.5 11.5L563.5 34.5L563.5 333.5" stroke-width="3.83" stroke="#3a7cc3"></path><path d="M442.75 80.5 a5.75 5.75 0 1 0 11.5 0 a5.75 5.75 0 1 0 -11.5 0zM557.75 333.5 a5.75 5.75 0 1 0 11.5 0 a5.75 5.75 0 1 0 -11.5 0z" fill="#3a7cc3"></path><path d="M1345.5 103.5L1345.5 11.5" stroke-width="3.83" stroke="#3a7cc3"></path><path d="M1339.75 103.5 a5.75 5.75 0 1 0 11.5 0 a5.75 5.75 0 1 0 -11.5 0zM1339.75 11.5 a5.75 5.75 0 1 0 11.5 0 a5.75 5.75 0 1 0 -11.5 0z" fill="#3a7cc3"></path><path d="M1092.5 310.5L1138.5 356.5L1138.5 448.5L1230.5 540.5L1276.5 540.5L1299.5 563.5L1414.5 563.5" stroke-width="3.83" stroke="#3a7cc3"></path><path d="M1086.75 310.5 a5.75 5.75 0 1 0 11.5 0 a5.75 5.75 0 1 0 -11.5 0zM1408.75 563.5 a5.75 5.75 0 1 0 11.5 0 a5.75 5.75 0 1 0 -11.5 0z" fill="#3a7cc3"></path><path d="M1115.5 218.5L1115.5 310.5L1161.5 356.5L1161.5 379.5L1207.5 425.5L1207.5 448.5L1184.5 471.5" stroke-width="3.83" stroke="#3a7cc3"></path><path d="M1109.75 218.5 a5.75 5.75 0 1 0 11.5 0 a5.75 5.75 0 1 0 -11.5 0zM1178.75 471.5 a5.75 5.75 0 1 0 11.5 0 a5.75 5.75 0 1 0 -11.5 0z" fill="#3a7cc3"></path><path d="M1253.5 11.5L1253.5 264.5L1184.5 333.5L1184.5 379.5L1230.5 425.5L1253.5 425.5" stroke-width="3.83" stroke="#3a7cc3"></path><path d="M1247.75 11.5 a5.75 5.75 0 1 0 11.5 0 a5.75 5.75 0 1 0 -11.5 0zM1247.75 425.5 a5.75 5.75 0 1 0 11.5 0 a5.75 5.75 0 1 0 -11.5 0z" fill="#3a7cc3"></path><path d="M1138.5 103.5L1069.5 172.5L816.5 172.5" stroke-width="3.83" stroke="#3a7cc3"></path><path d="M1132.75 103.5 a5.75 5.75 0 1 0 11.5 0 a5.75 5.75 0 1 0 -11.5 0zM810.75 172.5 a5.75 5.75 0 1 0 11.5 0 a5.75 5.75 0 1 0 -11.5 0z" fill="#3a7cc3"></path><path d="M793.5 57.5L885.5 149.5L1069.5 149.5L1207.5 11.5L1230.5 11.5" stroke-width="3.83" stroke="#3a7cc3"></path><path d="M787.75 57.5 a5.75 5.75 0 1 0 11.5 0 a5.75 5.75 0 1 0 -11.5 0zM1224.75 11.5 a5.75 5.75 0 1 0 11.5 0 a5.75 5.75 0 1 0 -11.5 0z" fill="#3a7cc3"></path><path d="M1115.5 448.5L1115.5 356.5L954.5 195.5L816.5 195.5" stroke-width="3.83" stroke="#3a7cc3"></path><path d="M1109.75 448.5 a5.75 5.75 0 1 0 11.5 0 a5.75 5.75 0 1 0 -11.5 0zM810.75 195.5 a5.75 5.75 0 1 0 11.5 0 a5.75 5.75 0 1 0 -11.5 0z" fill="#3a7cc3"></path><path d="M402.5 80.5L540.5 218.5L540.5 379.5" stroke-width="3.83" stroke="#3a7cc3"></path><path d="M396.75 80.5 a5.75 5.75 0 1 0 11.5 0 a5.75 5.75 0 1 0 -11.5 0zM534.75 379.5 a5.75 5.75 0 1 0 11.5 0 a5.75 5.75 0 1 0 -11.5 0z" fill="#3a7cc3"></path><path d="M632.5 402.5L632.5 448.5" stroke-width="3.83" stroke="#3a7cc3"></path><path d="M626.75 402.5 a5.75 5.75 0 1 0 11.5 0 a5.75 5.75 0 1 0 -11.5 0zM626.75 448.5 a5.75 5.75 0 1 0 11.5 0 a5.75 5.75 0 1 0 -11.5 0z" fill="#3a7cc3"></path><path d="M747.5 563.5L747.5 494.5L724.5 471.5L724.5 448.5L862.5 310.5L885.5 310.5L1046.5 471.5" stroke-width="3.83" stroke="#3a7cc3"></path><path d="M741.75 563.5 a5.75 5.75 0 1 0 11.5 0 a5.75 5.75 0 1 0 -11.5 0zM1040.75 471.5 a5.75 5.75 0 1 0 11.5 0 a5.75 5.75 0 1 0 -11.5 0z" fill="#3a7cc3"></path><path d="M632.5 195.5L632.5 11.5" stroke-width="3.83" stroke="#3a7cc3"></path><path d="M626.75 195.5 a5.75 5.75 0 1 0 11.5 0 a5.75 5.75 0 1 0 -11.5 0zM626.75 11.5 a5.75 5.75 0 1 0 11.5 0 a5.75 5.75 0 1 0 -11.5 0z" fill="#3a7cc3"></path><path d="M218.5 540.5L333.5 425.5L356.5 425.5" stroke-width="3.83" stroke="#3a7cc3"></path><path d="M212.75 540.5 a5.75 5.75 0 1 0 11.5 0 a5.75 5.75 0 1 0 -11.5 0zM350.75 425.5 a5.75 5.75 0 1 0 11.5 0 a5.75 5.75 0 1 0 -11.5 0z" fill="#3a7cc3"></path><path d="M425.5 310.5L425.5 356.5L448.5 379.5L517.5 379.5" stroke-width="3.83" stroke="#3a7cc3"></path><path d="M419.75 310.5 a5.75 5.75 0 1 0 11.5 0 a5.75 5.75 0 1 0 -11.5 0zM511.75 379.5 a5.75 5.75 0 1 0 11.5 0 a5.75 5.75 0 1 0 -11.5 0z" fill="#3a7cc3"></path><path d="M632.5 241.5L632.5 379.5L563.5 448.5L425.5 448.5" stroke-width="3.83" stroke="#3a7cc3"></path><path d="M626.75 241.5 a5.75 5.75 0 1 0 11.5 0 a5.75 5.75 0 1 0 -11.5 0zM419.75 448.5 a5.75 5.75 0 1 0 11.5 0 a5.75 5.75 0 1 0 -11.5 0z" fill="#3a7cc3"></path><path d="M701.5 540.5L701.5 471.5" stroke-width="3.83" stroke="#3a7cc3"></path><path d="M695.75 540.5 a5.75 5.75 0 1 0 11.5 0 a5.75 5.75 0 1 0 -11.5 0zM695.75 471.5 a5.75 5.75 0 1 0 11.5 0 a5.75 5.75 0 1 0 -11.5 0z" fill="#3a7cc3"></path><path d="M1000.5 126.5L1000.5 11.5" stroke-width="3.83" stroke="#3a7cc3"></path><path d="M994.75 126.5 a5.75 5.75 0 1 0 11.5 0 a5.75 5.75 0 1 0 -11.5 0zM994.75 11.5 a5.75 5.75 0 1 0 11.5 0 a5.75 5.75 0 1 0 -11.5 0z" fill="#3a7cc3"></path><path d="M333.5 103.5L333.5 11.5" stroke-width="3.83" stroke="#3a7cc3"></path><path d="M327.75 103.5 a5.75 5.75 0 1 0 11.5 0 a5.75 5.75 0 1 0 -11.5 0zM327.75 11.5 a5.75 5.75 0 1 0 11.5 0 a5.75 5.75 0 1 0 -11.5 0z" fill="#3a7cc3"></path><path d="M793.5 287.5L793.5 356.5" stroke-width="3.83" stroke="#3a7cc3"></path><path d="M787.75 287.5 a5.75 5.75 0 1 0 11.5 0 a5.75 5.75 0 1 0 -11.5 0zM787.75 356.5 a5.75 5.75 0 1 0 11.5 0 a5.75 5.75 0 1 0 -11.5 0z" fill="#3a7cc3"></path><path d="M1322.5 80.5L1322.5 195.5L1276.5 241.5L1276.5 425.5" stroke-width="3.83" stroke="#3a7cc3"></path><path d="M1316.75 80.5 a5.75 5.75 0 1 0 11.5 0 a5.75 5.75 0 1 0 -11.5 0zM1270.75 425.5 a5.75 5.75 0 1 0 11.5 0 a5.75 5.75 0 1 0 -11.5 0z" fill="#3a7cc3"></path><path d="M885.5 264.5L908.5 287.5L1023.5 287.5L1092.5 356.5L1092.5 448.5" stroke-width="3.83" stroke="#3a7cc3"></path><path d="M879.75 264.5 a5.75 5.75 0 1 0 11.5 0 a5.75 5.75 0 1 0 -11.5 0zM1086.75 448.5 a5.75 5.75 0 1 0 11.5 0 a5.75 5.75 0 1 0 -11.5 0z" fill="#3a7cc3"></path><path d="M57.5 126.5L34.5 126.5L11.5 149.5L11.5 172.5" stroke-width="3.83" stroke="#3a7cc3"></path><path d="M51.75 126.5 a5.75 5.75 0 1 0 11.5 0 a5.75 5.75 0 1 0 -11.5 0zM5.75 172.5 a5.75 5.75 0 1 0 11.5 0 a5.75 5.75 0 1 0 -11.5 0z" fill="#3a7cc3"></path><path d="M172.5 471.5L195.5 471.5L218.5 494.5L218.5 517.5L195.5 540.5L172.5 540.5L57.5 425.5L57.5 356.5" stroke-width="3.83" stroke="#3a7cc3"></path><path d="M166.75 471.5 a5.75 5.75 0 1 0 11.5 0 a5.75 5.75 0 1 0 -11.5 0zM51.75 356.5 a5.75 5.75 0 1 0 11.5 0 a5.75 5.75 0 1 0 -11.5 0z" fill="#3a7cc3"></path><path d="M149.5 241.5L103.5 241.5L57.5 287.5L57.5 310.5" stroke-width="3.83" stroke="#3a7cc3"></path><path d="M143.75 241.5 a5.75 5.75 0 1 0 11.5 0 a5.75 5.75 0 1 0 -11.5 0zM51.75 310.5 a5.75 5.75 0 1 0 11.5 0 a5.75 5.75 0 1 0 -11.5 0z" fill="#3a7cc3"></path><path d="M862.5 448.5L747.5 448.5" stroke-width="3.83" stroke="#3a7cc3"></path><path d="M856.75 448.5 a5.75 5.75 0 1 0 11.5 0 a5.75 5.75 0 1 0 -11.5 0zM741.75 448.5 a5.75 5.75 0 1 0 11.5 0 a5.75 5.75 0 1 0 -11.5 0z" fill="#3a7cc3"></path><path d="M11.5 80.5L80.5 11.5L310.5 11.5" stroke-width="3.83" stroke="#3a7cc3"></path><path d="M5.75 80.5 a5.75 5.75 0 1 0 11.5 0 a5.75 5.75 0 1 0 -11.5 0zM304.75 11.5 a5.75 5.75 0 1 0 11.5 0 a5.75 5.75 0 1 0 -11.5 0z" fill="#3a7cc3"></path><path d="M1115.5 494.5L1184.5 563.5L1276.5 563.5" stroke-width="3.83" stroke="#3a7cc3"></path><path d="M1109.75 494.5 a5.75 5.75 0 1 0 11.5 0 a5.75 5.75 0 1 0 -11.5 0zM1270.75 563.5 a5.75 5.75 0 1 0 11.5 0 a5.75 5.75 0 1 0 -11.5 0z" fill="#3a7cc3"></path><path d="M839.5 80.5L770.5 11.5L701.5 11.5" stroke-width="3.83" stroke="#3a7cc3"></path><path d="M833.75 80.5 a5.75 5.75 0 1 0 11.5 0 a5.75 5.75 0 1 0 -11.5 0zM695.75 11.5 a5.75 5.75 0 1 0 11.5 0 a5.75 5.75 0 1 0 -11.5 0z" fill="#3a7cc3"></path><path d="M1391.5 149.5L1391.5 80.5L1368.5 57.5L1368.5 11.5" stroke-width="3.83" stroke="#3a7cc3"></path><path d="M1385.75 149.5 a5.75 5.75 0 1 0 11.5 0 a5.75 5.75 0 1 0 -11.5 0zM1362.75 11.5 a5.75 5.75 0 1 0 11.5 0 a5.75 5.75 0 1 0 -11.5 0z" fill="#3a7cc3"></path><path d="M264.5 448.5L103.5 448.5L80.5 425.5L80.5 356.5" stroke-width="3.83" stroke="#3a7cc3"></path><path d="M258.75 448.5 a5.75 5.75 0 1 0 11.5 0 a5.75 5.75 0 1 0 -11.5 0zM74.75 356.5 a5.75 5.75 0 1 0 11.5 0 a5.75 5.75 0 1 0 -11.5 0z" fill="#3a7cc3"></path><path d="M655.5 494.5L678.5 517.5L678.5 563.5" stroke-width="3.83" stroke="#3a7cc3"></path><path d="M649.75 494.5 a5.75 5.75 0 1 0 11.5 0 a5.75 5.75 0 1 0 -11.5 0zM672.75 563.5 a5.75 5.75 0 1 0 11.5 0 a5.75 5.75 0 1 0 -11.5 0z" fill="#3a7cc3"></path><path d="M1414.5 448.5L1299.5 333.5L1299.5 241.5L1368.5 172.5L1437.5 172.5" stroke-width="3.83" stroke="#3a7cc3"></path><path d="M1408.75 448.5 a5.75 5.75 0 1 0 11.5 0 a5.75 5.75 0 1 0 -11.5 0zM1431.75 172.5 a5.75 5.75 0 1 0 11.5 0 a5.75 5.75 0 1 0 -11.5 0z" fill="#3a7cc3"></path><path d="M908.5 540.5L1000.5 448.5" stroke-width="3.83" stroke="#3a7cc3"></path><path d="M902.75 540.5 a5.75 5.75 0 1 0 11.5 0 a5.75 5.75 0 1 0 -11.5 0zM994.75 448.5 a5.75 5.75 0 1 0 11.5 0 a5.75 5.75 0 1 0 -11.5 0z" fill="#3a7cc3"></path><path d="M1046.5 80.5L1023.5 103.5L1023.5 126.5" stroke-width="3.83" stroke="#3a7cc3"></path><path d="M1040.75 80.5 a5.75 5.75 0 1 0 11.5 0 a5.75 5.75 0 1 0 -11.5 0zM1017.75 126.5 a5.75 5.75 0 1 0 11.5 0 a5.75 5.75 0 1 0 -11.5 0z" fill="#3a7cc3"></path><path d="M954.5 241.5L931.5 264.5L908.5 264.5L885.5 241.5L885.5 218.5" stroke-width="3.83" stroke="#3a7cc3"></path><path d="M948.75 241.5 a5.75 5.75 0 1 0 11.5 0 a5.75 5.75 0 1 0 -11.5 0zM879.75 218.5 a5.75 5.75 0 1 0 11.5 0 a5.75 5.75 0 1 0 -11.5 0z" fill="#3a7cc3"></path><path d="M747.5 264.5L701.5 264.5L655.5 310.5L655.5 356.5L701.5 402.5L724.5 402.5L770.5 356.5L770.5 172.5" stroke-width="3.83" stroke="#3a7cc3"></path><path d="M741.75 264.5 a5.75 5.75 0 1 0 11.5 0 a5.75 5.75 0 1 0 -11.5 0zM764.75 172.5 a5.75 5.75 0 1 0 11.5 0 a5.75 5.75 0 1 0 -11.5 0z" fill="#3a7cc3"></path><path d="M425.5 34.5L356.5 34.5" stroke-width="3.83" stroke="#3a7cc3"></path><path d="M419.75 34.5 a5.75 5.75 0 1 0 11.5 0 a5.75 5.75 0 1 0 -11.5 0zM350.75 34.5 a5.75 5.75 0 1 0 11.5 0 a5.75 5.75 0 1 0 -11.5 0z" fill="#3a7cc3"></path><path d="M195.5 287.5L172.5 287.5L149.5 264.5L126.5 264.5L80.5 310.5" stroke-width="3.83" stroke="#3a7cc3"></path><path d="M189.75 287.5 a5.75 5.75 0 1 0 11.5 0 a5.75 5.75 0 1 0 -11.5 0zM74.75 310.5 a5.75 5.75 0 1 0 11.5 0 a5.75 5.75 0 1 0 -11.5 0z" fill="#3a7cc3"></path><path d="M11.5 218.5L11.5 517.5" stroke-width="3.83" stroke="#3a7cc3"></path><path d="M5.75 218.5 a5.75 5.75 0 1 0 11.5 0 a5.75 5.75 0 1 0 -11.5 0zM5.75 517.5 a5.75 5.75 0 1 0 11.5 0 a5.75 5.75 0 1 0 -11.5 0z" fill="#3a7cc3"></path><path d="M609.5 126.5L609.5 34.5L586.5 11.5L563.5 11.5" stroke-width="3.83" stroke="#3a7cc3"></path><path d="M603.75 126.5 a5.75 5.75 0 1 0 11.5 0 a5.75 5.75 0 1 0 -11.5 0zM557.75 11.5 a5.75 5.75 0 1 0 11.5 0 a5.75 5.75 0 1 0 -11.5 0z" fill="#3a7cc3"></path><path d="M1000.5 517.5L1046.5 563.5L1138.5 563.5" stroke-width="3.83" stroke="#3a7cc3"></path><path d="M994.75 517.5 a5.75 5.75 0 1 0 11.5 0 a5.75 5.75 0 1 0 -11.5 0zM1132.75 563.5 a5.75 5.75 0 1 0 11.5 0 a5.75 5.75 0 1 0 -11.5 0z" fill="#3a7cc3"></path><path d="M724.5 80.5L724.5 241.5" stroke-width="3.83" stroke="#3a7cc3"></path><path d="M718.75 80.5 a5.75 5.75 0 1 0 11.5 0 a5.75 5.75 0 1 0 -11.5 0zM718.75 241.5 a5.75 5.75 0 1 0 11.5 0 a5.75 5.75 0 1 0 -11.5 0z" fill="#3a7cc3"></path><path d="M1230.5 126.5L1207.5 126.5L1161.5 80.5" stroke-width="3.83" stroke="#3a7cc3"></path><path d="M1224.75 126.5 a5.75 5.75 0 1 0 11.5 0 a5.75 5.75 0 1 0 -11.5 0zM1155.75 80.5 a5.75 5.75 0 1 0 11.5 0 a5.75 5.75 0 1 0 -11.5 0z" fill="#3a7cc3"></path><path d="M1253.5 494.5L1207.5 494.5" stroke-width="3.83" stroke="#3a7cc3"></path><path d="M1247.75 494.5 a5.75 5.75 0 1 0 11.5 0 a5.75 5.75 0 1 0 -11.5 0zM1201.75 494.5 a5.75 5.75 0 1 0 11.5 0 a5.75 5.75 0 1 0 -11.5 0z" fill="#3a7cc3"></path><path d="M494.5 103.5L540.5 57.5L540.5 34.5" stroke-width="3.83" stroke="#3a7cc3"></path><path d="M488.75 103.5 a5.75 5.75 0 1 0 11.5 0 a5.75 5.75 0 1 0 -11.5 0zM534.75 34.5 a5.75 5.75 0 1 0 11.5 0 a5.75 5.75 0 1 0 -11.5 0z" fill="#3a7cc3"></path><path d="M1069.5 494.5L1115.5 540.5L1138.5 540.5" stroke-width="3.83" stroke="#3a7cc3"></path><path d="M1063.75 494.5 a5.75 5.75 0 1 0 11.5 0 a5.75 5.75 0 1 0 -11.5 0zM1132.75 540.5 a5.75 5.75 0 1 0 11.5 0 a5.75 5.75 0 1 0 -11.5 0z" fill="#3a7cc3"></path><path d="M218.5 264.5L241.5 241.5L517.5 241.5" stroke-width="3.83" stroke="#3a7cc3"></path><path d="M212.75 264.5 a5.75 5.75 0 1 0 11.5 0 a5.75 5.75 0 1 0 -11.5 0zM511.75 241.5 a5.75 5.75 0 1 0 11.5 0 a5.75 5.75 0 1 0 -11.5 0z" fill="#3a7cc3"></path><path d="M310.5 471.5L333.5 448.5L356.5 448.5" stroke-width="3.83" stroke="#3a7cc3"></path><path d="M304.75 471.5 a5.75 5.75 0 1 0 11.5 0 a5.75 5.75 0 1 0 -11.5 0zM350.75 448.5 a5.75 5.75 0 1 0 11.5 0 a5.75 5.75 0 1 0 -11.5 0z" fill="#3a7cc3"></path><path d="M1276.5 517.5L1230.5 517.5" stroke-width="3.83" stroke="#3a7cc3"></path><path d="M1270.75 517.5 a5.75 5.75 0 1 0 11.5 0 a5.75 5.75 0 1 0 -11.5 0zM1224.75 517.5 a5.75 5.75 0 1 0 11.5 0 a5.75 5.75 0 1 0 -11.5 0z" fill="#3a7cc3"></path><path d="M195.5 172.5L264.5 172.5L310.5 126.5L310.5 34.5" stroke-width="3.83" stroke="#3a7cc3"></path><path d="M189.75 172.5 a5.75 5.75 0 1 0 11.5 0 a5.75 5.75 0 1 0 -11.5 0zM304.75 34.5 a5.75 5.75 0 1 0 11.5 0 a5.75 5.75 0 1 0 -11.5 0z" fill="#3a7cc3"></path><path d="M1138.5 218.5L1161.5 195.5L1161.5 103.5" stroke-width="3.83" stroke="#3a7cc3"></path><path d="M1132.75 218.5 a5.75 5.75 0 1 0 11.5 0 a5.75 5.75 0 1 0 -11.5 0zM1155.75 103.5 a5.75 5.75 0 1 0 11.5 0 a5.75 5.75 0 1 0 -11.5 0z" fill="#3a7cc3"></path><path d="M1276.5 149.5L1276.5 218.5" stroke-width="3.83" stroke="#3a7cc3"></path><path d="M1270.75 149.5 a5.75 5.75 0 1 0 11.5 0 a5.75 5.75 0 1 0 -11.5 0zM1270.75 218.5 a5.75 5.75 0 1 0 11.5 0 a5.75 5.75 0 1 0 -11.5 0z" fill="#3a7cc3"></path><path d="M1345.5 494.5L1391.5 540.5L1414.5 540.5" stroke-width="3.83" stroke="#3a7cc3"></path><path d="M1339.75 494.5 a5.75 5.75 0 1 0 11.5 0 a5.75 5.75 0 1 0 -11.5 0zM1408.75 540.5 a5.75 5.75 0 1 0 11.5 0 a5.75 5.75 0 1 0 -11.5 0z" fill="#3a7cc3"></path><path d="M195.5 494.5L149.5 494.5L126.5 471.5" stroke-width="3.83" stroke="#3a7cc3"></path><path d="M189.75 494.5 a5.75 5.75 0 1 0 11.5 0 a5.75 5.75 0 1 0 -11.5 0zM120.75 471.5 a5.75 5.75 0 1 0 11.5 0 a5.75 5.75 0 1 0 -11.5 0z" fill="#3a7cc3"></path><path d="M310.5 287.5L333.5 310.5L333.5 333.5" stroke-width="3.83" stroke="#3a7cc3"></path><path d="M304.75 287.5 a5.75 5.75 0 1 0 11.5 0 a5.75 5.75 0 1 0 -11.5 0zM327.75 333.5 a5.75 5.75 0 1 0 11.5 0 a5.75 5.75 0 1 0 -11.5 0z" fill="#3a7cc3"></path><path d="M126.5 103.5L80.5 57.5L57.5 57.5L34.5 80.5L34.5 103.5" stroke-width="3.83" stroke="#3a7cc3"></path><path d="M120.75 103.5 a5.75 5.75 0 1 0 11.5 0 a5.75 5.75 0 1 0 -11.5 0zM28.75 103.5 a5.75 5.75 0 1 0 11.5 0 a5.75 5.75 0 1 0 -11.5 0z" fill="#3a7cc3"></path><path d="M425.5 540.5L402.5 517.5L402.5 494.5" stroke-width="3.83" stroke="#3a7cc3"></path><path d="M419.75 540.5 a5.75 5.75 0 1 0 11.5 0 a5.75 5.75 0 1 0 -11.5 0zM396.75 494.5 a5.75 5.75 0 1 0 11.5 0 a5.75 5.75 0 1 0 -11.5 0z" fill="#3a7cc3"></path><path d="M839.5 287.5L793.5 241.5L793.5 218.5" stroke-width="3.83" stroke="#3a7cc3"></path><path d="M833.75 287.5 a5.75 5.75 0 1 0 11.5 0 a5.75 5.75 0 1 0 -11.5 0zM787.75 218.5 a5.75 5.75 0 1 0 11.5 0 a5.75 5.75 0 1 0 -11.5 0z" fill="#3a7cc3"></path><path d="M839.5 540.5L862.5 563.5L1023.5 563.5" stroke-width="3.83" stroke="#3a7cc3"></path><path d="M833.75 540.5 a5.75 5.75 0 1 0 11.5 0 a5.75 5.75 0 1 0 -11.5 0zM1017.75 563.5 a5.75 5.75 0 1 0 11.5 0 a5.75 5.75 0 1 0 -11.5 0z" fill="#3a7cc3"></path><path d="M655.5 172.5L655.5 287.5" stroke-width="3.83" stroke="#3a7cc3"></path><path d="M649.75 172.5 a5.75 5.75 0 1 0 11.5 0 a5.75 5.75 0 1 0 -11.5 0zM649.75 287.5 a5.75 5.75 0 1 0 11.5 0 a5.75 5.75 0 1 0 -11.5 0z" fill="#3a7cc3"></path><path d="M471.5 126.5L471.5 57.5" stroke-width="3.83" stroke="#3a7cc3"></path><path d="M465.75 126.5 a5.75 5.75 0 1 0 11.5 0 a5.75 5.75 0 1 0 -11.5 0zM465.75 57.5 a5.75 5.75 0 1 0 11.5 0 a5.75 5.75 0 1 0 -11.5 0z" fill="#3a7cc3"></path><path d="M218.5 310.5L126.5 310.5" stroke-width="3.83" stroke="#3a7cc3"></path><path d="M212.75 310.5 a5.75 5.75 0 1 0 11.5 0 a5.75 5.75 0 1 0 -11.5 0zM120.75 310.5 a5.75 5.75 0 1 0 11.5 0 a5.75 5.75 0 1 0 -11.5 0z" fill="#3a7cc3"></path><path d="M1069.5 57.5L1092.5 80.5L1115.5 80.5L1184.5 11.5" stroke-width="3.83" stroke="#3a7cc3"></path><path d="M1063.75 57.5 a5.75 5.75 0 1 0 11.5 0 a5.75 5.75 0 1 0 -11.5 0zM1178.75 11.5 a5.75 5.75 0 1 0 11.5 0 a5.75 5.75 0 1 0 -11.5 0z" fill="#3a7cc3"></path><path d="M885.5 494.5L862.5 517.5L862.5 540.5" stroke-width="3.83" stroke="#3a7cc3"></path><path d="M879.75 494.5 a5.75 5.75 0 1 0 11.5 0 a5.75 5.75 0 1 0 -11.5 0zM856.75 540.5 a5.75 5.75 0 1 0 11.5 0 a5.75 5.75 0 1 0 -11.5 0z" fill="#3a7cc3"></path><path d="M1023.5 195.5L1092.5 264.5L1092.5 287.5" stroke-width="3.83" stroke="#3a7cc3"></path><path d="M1017.75 195.5 a5.75 5.75 0 1 0 11.5 0 a5.75 5.75 0 1 0 -11.5 0zM1086.75 287.5 a5.75 5.75 0 1 0 11.5 0 a5.75 5.75 0 1 0 -11.5 0z" fill="#3a7cc3"></path><path d="M1138.5 172.5L1138.5 126.5" stroke-width="3.83" stroke="#3a7cc3"></path><path d="M1132.75 172.5 a5.75 5.75 0 1 0 11.5 0 a5.75 5.75 0 1 0 -11.5 0zM1132.75 126.5 a5.75 5.75 0 1 0 11.5 0 a5.75 5.75 0 1 0 -11.5 0z" fill="#3a7cc3"></path><path d="M1023.5 402.5L977.5 356.5L977.5 310.5" stroke-width="3.83" stroke="#3a7cc3"></path><path d="M1017.75 402.5 a5.75 5.75 0 1 0 11.5 0 a5.75 5.75 0 1 0 -11.5 0zM971.75 310.5 a5.75 5.75 0 1 0 11.5 0 a5.75 5.75 0 1 0 -11.5 0z" fill="#3a7cc3"></path><path d="M1184.5 195.5L1230.5 195.5" stroke-width="3.83" stroke="#3a7cc3"></path><path d="M1178.75 195.5 a5.75 5.75 0 1 0 11.5 0 a5.75 5.75 0 1 0 -11.5 0zM1224.75 195.5 a5.75 5.75 0 1 0 11.5 0 a5.75 5.75 0 1 0 -11.5 0z" fill="#3a7cc3"></path><path d="M977.5 11.5L977.5 126.5" stroke-width="3.83" stroke="#3a7cc3"></path><path d="M971.75 11.5 a5.75 5.75 0 1 0 11.5 0 a5.75 5.75 0 1 0 -11.5 0zM971.75 126.5 a5.75 5.75 0 1 0 11.5 0 a5.75 5.75 0 1 0 -11.5 0z" fill="#3a7cc3"></path><path d="M1276.5 80.5L1276.5 11.5" stroke-width="3.83" stroke="#3a7cc3"></path><path d="M1270.75 80.5 a5.75 5.75 0 1 0 11.5 0 a5.75 5.75 0 1 0 -11.5 0zM1270.75 11.5 a5.75 5.75 0 1 0 11.5 0 a5.75 5.75 0 1 0 -11.5 0z" fill="#3a7cc3"></path><path d="M793.5 471.5L931.5 471.5L977.5 425.5" stroke-width="3.83" stroke="#3a7cc3"></path><path d="M787.75 471.5 a5.75 5.75 0 1 0 11.5 0 a5.75 5.75 0 1 0 -11.5 0zM971.75 425.5 a5.75 5.75 0 1 0 11.5 0 a5.75 5.75 0 1 0 -11.5 0z" fill="#3a7cc3"></path><path d="M333.5 471.5L333.5 517.5L310.5 540.5L241.5 540.5" stroke-width="3.83" stroke="#3a7cc3"></path><path d="M327.75 471.5 a5.75 5.75 0 1 0 11.5 0 a5.75 5.75 0 1 0 -11.5 0zM235.75 540.5 a5.75 5.75 0 1 0 11.5 0 a5.75 5.75 0 1 0 -11.5 0z" fill="#3a7cc3"></path><path d="M747.5 126.5L747.5 241.5" stroke-width="3.83" stroke="#3a7cc3"></path><path d="M741.75 126.5 a5.75 5.75 0 1 0 11.5 0 a5.75 5.75 0 1 0 -11.5 0zM741.75 241.5 a5.75 5.75 0 1 0 11.5 0 a5.75 5.75 0 1 0 -11.5 0z" fill="#3a7cc3"></path><path d="M494.5 356.5L494.5 264.5" stroke-width="3.83" stroke="#3a7cc3"></path><path d="M488.75 356.5 a5.75 5.75 0 1 0 11.5 0 a5.75 5.75 0 1 0 -11.5 0zM488.75 264.5 a5.75 5.75 0 1 0 11.5 0 a5.75 5.75 0 1 0 -11.5 0z" fill="#3a7cc3"></path><path d="M241.5 103.5L149.5 103.5L80.5 34.5" stroke-width="3.83" stroke="#3a7cc3"></path><path d="M235.75 103.5 a5.75 5.75 0 1 0 11.5 0 a5.75 5.75 0 1 0 -11.5 0zM74.75 34.5 a5.75 5.75 0 1 0 11.5 0 a5.75 5.75 0 1 0 -11.5 0z" fill="#3a7cc3"></path><path d="M218.5 379.5L356.5 379.5" stroke-width="3.83" stroke="#3a7cc3"></path><path d="M212.75 379.5 a5.75 5.75 0 1 0 11.5 0 a5.75 5.75 0 1 0 -11.5 0zM350.75 379.5 a5.75 5.75 0 1 0 11.5 0 a5.75 5.75 0 1 0 -11.5 0z" fill="#3a7cc3"></path><path d="M425.5 218.5L517.5 218.5" stroke-width="3.83" stroke="#3a7cc3"></path><path d="M419.75 218.5 a5.75 5.75 0 1 0 11.5 0 a5.75 5.75 0 1 0 -11.5 0zM511.75 218.5 a5.75 5.75 0 1 0 11.5 0 a5.75 5.75 0 1 0 -11.5 0z" fill="#3a7cc3"></path><path d="M402.5 333.5L402.5 287.5L425.5 264.5L471.5 264.5" stroke-width="3.83" stroke="#3a7cc3"></path><path d="M396.75 333.5 a5.75 5.75 0 1 0 11.5 0 a5.75 5.75 0 1 0 -11.5 0zM465.75 264.5 a5.75 5.75 0 1 0 11.5 0 a5.75 5.75 0 1 0 -11.5 0z" fill="#3a7cc3"></path><path d="M1207.5 540.5L1184.5 540.5L1138.5 494.5" stroke-width="3.83" stroke="#3a7cc3"></path><path d="M1201.75 540.5 a5.75 5.75 0 1 0 11.5 0 a5.75 5.75 0 1 0 -11.5 0zM1132.75 494.5 a5.75 5.75 0 1 0 11.5 0 a5.75 5.75 0 1 0 -11.5 0z" fill="#3a7cc3"></path><path d="M931.5 494.5L885.5 540.5" stroke-width="3.83" stroke="#3a7cc3"></path><path d="M925.75 494.5 a5.75 5.75 0 1 0 11.5 0 a5.75 5.75 0 1 0 -11.5 0zM879.75 540.5 a5.75 5.75 0 1 0 11.5 0 a5.75 5.75 0 1 0 -11.5 0z" fill="#3a7cc3"></path><path d="M1368.5 310.5L1391.5 287.5L1391.5 195.5" stroke-width="3.83" stroke="#3a7cc3"></path><path d="M1362.75 310.5 a5.75 5.75 0 1 0 11.5 0 a5.75 5.75 0 1 0 -11.5 0zM1385.75 195.5 a5.75 5.75 0 1 0 11.5 0 a5.75 5.75 0 1 0 -11.5 0z" fill="#3a7cc3"></path><path d="M126.5 126.5L80.5 172.5L57.5 172.5" stroke-width="3.83" stroke="#3a7cc3"></path><path d="M120.75 126.5 a5.75 5.75 0 1 0 11.5 0 a5.75 5.75 0 1 0 -11.5 0zM51.75 172.5 a5.75 5.75 0 1 0 11.5 0 a5.75 5.75 0 1 0 -11.5 0z" fill="#3a7cc3"></path><path d="M1345.5 425.5L1299.5 425.5" stroke-width="3.83" stroke="#3a7cc3"></path><path d="M1339.75 425.5 a5.75 5.75 0 1 0 11.5 0 a5.75 5.75 0 1 0 -11.5 0zM1293.75 425.5 a5.75 5.75 0 1 0 11.5 0 a5.75 5.75 0 1 0 -11.5 0z" fill="#3a7cc3"></path><path d="M632.5 563.5L655.5 540.5L655.5 517.5L632.5 494.5L425.5 494.5" stroke-width="3.83" stroke="#3a7cc3"></path><path d="M626.75 563.5 a5.75 5.75 0 1 0 11.5 0 a5.75 5.75 0 1 0 -11.5 0zM419.75 494.5 a5.75 5.75 0 1 0 11.5 0 a5.75 5.75 0 1 0 -11.5 0z" fill="#3a7cc3"></path><path d="M1253.5 471.5L1345.5 471.5" stroke-width="3.83" stroke="#3a7cc3"></path><path d="M1247.75 471.5 a5.75 5.75 0 1 0 11.5 0 a5.75 5.75 0 1 0 -11.5 0zM1339.75 471.5 a5.75 5.75 0 1 0 11.5 0 a5.75 5.75 0 1 0 -11.5 0z" fill="#3a7cc3"></path><path d="M379.5 563.5L379.5 540.5L356.5 517.5L356.5 471.5" stroke-width="3.83" stroke="#3a7cc3"></path><path d="M373.75 563.5 a5.75 5.75 0 1 0 11.5 0 a5.75 5.75 0 1 0 -11.5 0zM350.75 471.5 a5.75 5.75 0 1 0 11.5 0 a5.75 5.75 0 1 0 -11.5 0z" fill="#3a7cc3"></path><path d="M1000.5 195.5L1023.5 218.5L1023.5 241.5L1069.5 287.5" stroke-width="3.83" stroke="#3a7cc3"></path><path d="M994.75 195.5 a5.75 5.75 0 1 0 11.5 0 a5.75 5.75 0 1 0 -11.5 0zM1063.75 287.5 a5.75 5.75 0 1 0 11.5 0 a5.75 5.75 0 1 0 -11.5 0z" fill="#3a7cc3"></path><path d="M241.5 126.5L287.5 126.5" stroke-width="3.83" stroke="#3a7cc3"></path><path d="M235.75 126.5 a5.75 5.75 0 1 0 11.5 0 a5.75 5.75 0 1 0 -11.5 0zM281.75 126.5 a5.75 5.75 0 1 0 11.5 0 a5.75 5.75 0 1 0 -11.5 0z" fill="#3a7cc3"></path><path d="M586.5 540.5L448.5 540.5L425.5 517.5" stroke-width="3.83" stroke="#3a7cc3"></path><path d="M580.75 540.5 a5.75 5.75 0 1 0 11.5 0 a5.75 5.75 0 1 0 -11.5 0zM419.75 517.5 a5.75 5.75 0 1 0 11.5 0 a5.75 5.75 0 1 0 -11.5 0z" fill="#3a7cc3"></path><path d="M655.5 103.5L655.5 149.5" stroke-width="3.83" stroke="#3a7cc3"></path><path d="M649.75 103.5 a5.75 5.75 0 1 0 11.5 0 a5.75 5.75 0 1 0 -11.5 0zM649.75 149.5 a5.75 5.75 0 1 0 11.5 0 a5.75 5.75 0 1 0 -11.5 0z" fill="#3a7cc3"></path><path d="M1046.5 11.5L1092.5 57.5L1115.5 57.5L1161.5 11.5" stroke-width="3.83" stroke="#3a7cc3"></path><path d="M1040.75 11.5 a5.75 5.75 0 1 0 11.5 0 a5.75 5.75 0 1 0 -11.5 0zM1155.75 11.5 a5.75 5.75 0 1 0 11.5 0 a5.75 5.75 0 1 0 -11.5 0z" fill="#3a7cc3"></path><path d="M1138.5 195.5L1115.5 172.5L1092.5 172.5L1069.5 195.5L1046.5 195.5" stroke-width="3.83" stroke="#3a7cc3"></path><path d="M1132.75 195.5 a5.75 5.75 0 1 0 11.5 0 a5.75 5.75 0 1 0 -11.5 0zM1040.75 195.5 a5.75 5.75 0 1 0 11.5 0 a5.75 5.75 0 1 0 -11.5 0z" fill="#3a7cc3"></path><path d="M885.5 402.5L862.5 425.5L770.5 425.5" stroke-width="3.83" stroke="#3a7cc3"></path><path d="M879.75 402.5 a5.75 5.75 0 1 0 11.5 0 a5.75 5.75 0 1 0 -11.5 0zM764.75 425.5 a5.75 5.75 0 1 0 11.5 0 a5.75 5.75 0 1 0 -11.5 0z" fill="#3a7cc3"></path><path d="M1207.5 218.5L1161.5 218.5L1138.5 241.5L1138.5 287.5L1161.5 310.5L1184.5 310.5L1230.5 264.5L1230.5 241.5" stroke-width="3.83" stroke="#3a7cc3"></path><path d="M1201.75 218.5 a5.75 5.75 0 1 0 11.5 0 a5.75 5.75 0 1 0 -11.5 0zM1224.75 241.5 a5.75 5.75 0 1 0 11.5 0 a5.75 5.75 0 1 0 -11.5 0z" fill="#3a7cc3"></path><path d="M1368.5 333.5L1322.5 287.5L1322.5 241.5L1368.5 195.5" stroke-width="3.83" stroke="#3a7cc3"></path><path d="M1362.75 333.5 a5.75 5.75 0 1 0 11.5 0 a5.75 5.75 0 1 0 -11.5 0zM1362.75 195.5 a5.75 5.75 0 1 0 11.5 0 a5.75 5.75 0 1 0 -11.5 0z" fill="#3a7cc3"></path><path d="M80.5 471.5L126.5 517.5" stroke-width="3.83" stroke="#3a7cc3"></path><path d="M74.75 471.5 a5.75 5.75 0 1 0 11.5 0 a5.75 5.75 0 1 0 -11.5 0zM120.75 517.5 a5.75 5.75 0 1 0 11.5 0 a5.75 5.75 0 1 0 -11.5 0z" fill="#3a7cc3"></path><path d="M402.5 11.5L356.5 11.5" stroke-width="3.83" stroke="#3a7cc3"></path><path d="M396.75 11.5 a5.75 5.75 0 1 0 11.5 0 a5.75 5.75 0 1 0 -11.5 0zM350.75 11.5 a5.75 5.75 0 1 0 11.5 0 a5.75 5.75 0 1 0 -11.5 0z" fill="#3a7cc3"></path><path d="M816.5 540.5L747.5 471.5" stroke-width="3.83" stroke="#3a7cc3"></path><path d="M810.75 540.5 a5.75 5.75 0 1 0 11.5 0 a5.75 5.75 0 1 0 -11.5 0zM741.75 471.5 a5.75 5.75 0 1 0 11.5 0 a5.75 5.75 0 1 0 -11.5 0z" fill="#3a7cc3"></path><path d="M1069.5 379.5L1023.5 333.5L1000.5 333.5" stroke-width="3.83" stroke="#3a7cc3"></path><path d="M1063.75 379.5 a5.75 5.75 0 1 0 11.5 0 a5.75 5.75 0 1 0 -11.5 0zM994.75 333.5 a5.75 5.75 0 1 0 11.5 0 a5.75 5.75 0 1 0 -11.5 0z" fill="#3a7cc3"></path><path d="M816.5 11.5L816.5 34.5L908.5 126.5L954.5 126.5" stroke-width="3.83" stroke="#3a7cc3"></path><path d="M810.75 11.5 a5.75 5.75 0 1 0 11.5 0 a5.75 5.75 0 1 0 -11.5 0zM948.75 126.5 a5.75 5.75 0 1 0 11.5 0 a5.75 5.75 0 1 0 -11.5 0z" fill="#3a7cc3"></path><path d="M34.5 448.5L34.5 494.5L57.5 517.5L103.5 517.5" stroke-width="3.83" stroke="#3a7cc3"></path><path d="M28.75 448.5 a5.75 5.75 0 1 0 11.5 0 a5.75 5.75 0 1 0 -11.5 0zM97.75 517.5 a5.75 5.75 0 1 0 11.5 0 a5.75 5.75 0 1 0 -11.5 0z" fill="#3a7cc3"></path><path d="M1368.5 264.5L1368.5 218.5" stroke-width="3.83" stroke="#3a7cc3"></path><path d="M1362.75 264.5 a5.75 5.75 0 1 0 11.5 0 a5.75 5.75 0 1 0 -11.5 0zM1362.75 218.5 a5.75 5.75 0 1 0 11.5 0 a5.75 5.75 0 1 0 -11.5 0z" fill="#3a7cc3"></path><path d="M471.5 310.5L448.5 287.5L425.5 287.5" stroke-width="3.83" stroke="#3a7cc3"></path><path d="M465.75 310.5 a5.75 5.75 0 1 0 11.5 0 a5.75 5.75 0 1 0 -11.5 0zM419.75 287.5 a5.75 5.75 0 1 0 11.5 0 a5.75 5.75 0 1 0 -11.5 0z" fill="#3a7cc3"></path><path d="M1345.5 172.5L1345.5 126.5L1368.5 103.5L1368.5 80.5" stroke-width="3.83" stroke="#3a7cc3"></path><path d="M1339.75 172.5 a5.75 5.75 0 1 0 11.5 0 a5.75 5.75 0 1 0 -11.5 0zM1362.75 80.5 a5.75 5.75 0 1 0 11.5 0 a5.75 5.75 0 1 0 -11.5 0z" fill="#3a7cc3"></path><path d="M34.5 218.5L80.5 218.5" stroke-width="3.83" stroke="#3a7cc3"></path><path d="M28.75 218.5 a5.75 5.75 0 1 0 11.5 0 a5.75 5.75 0 1 0 -11.5 0zM74.75 218.5 a5.75 5.75 0 1 0 11.5 0 a5.75 5.75 0 1 0 -11.5 0z" fill="#3a7cc3"></path><path d="M1391.5 57.5L1437.5 103.5L1437.5 126.5L1414.5 149.5" stroke-width="3.83" stroke="#3a7cc3"></path><path d="M1385.75 57.5 a5.75 5.75 0 1 0 11.5 0 a5.75 5.75 0 1 0 -11.5 0zM1408.75 149.5 a5.75 5.75 0 1 0 11.5 0 a5.75 5.75 0 1 0 -11.5 0z" fill="#3a7cc3"></path><path d="M448.5 517.5L609.5 517.5" stroke-width="3.83" stroke="#3a7cc3"></path><path d="M442.75 517.5 a5.75 5.75 0 1 0 11.5 0 a5.75 5.75 0 1 0 -11.5 0zM603.75 517.5 a5.75 5.75 0 1 0 11.5 0 a5.75 5.75 0 1 0 -11.5 0z" fill="#3a7cc3"></path><path d="M218.5 241.5L172.5 241.5" stroke-width="3.83" stroke="#3a7cc3"></path><path d="M212.75 241.5 a5.75 5.75 0 1 0 11.5 0 a5.75 5.75 0 1 0 -11.5 0zM166.75 241.5 a5.75 5.75 0 1 0 11.5 0 a5.75 5.75 0 1 0 -11.5 0z" fill="#3a7cc3"></path><path d="M103.5 425.5L172.5 356.5L264.5 356.5" stroke-width="3.83" stroke="#3a7cc3"></path><path d="M97.75 425.5 a5.75 5.75 0 1 0 11.5 0 a5.75 5.75 0 1 0 -11.5 0zM258.75 356.5 a5.75 5.75 0 1 0 11.5 0 a5.75 5.75 0 1 0 -11.5 0z" fill="#3a7cc3"></path><path d="M770.5 540.5L793.5 540.5L816.5 563.5L839.5 563.5" stroke-width="3.83" stroke="#3a7cc3"></path><path d="M764.75 540.5 a5.75 5.75 0 1 0 11.5 0 a5.75 5.75 0 1 0 -11.5 0zM833.75 563.5 a5.75 5.75 0 1 0 11.5 0 a5.75 5.75 0 1 0 -11.5 0z" fill="#3a7cc3"></path><path d="M1322.5 34.5L1322.5 57.5L1276.5 103.5L1276.5 126.5" stroke-width="3.83" stroke="#3a7cc3"></path><path d="M1316.75 34.5 a5.75 5.75 0 1 0 11.5 0 a5.75 5.75 0 1 0 -11.5 0zM1270.75 126.5 a5.75 5.75 0 1 0 11.5 0 a5.75 5.75 0 1 0 -11.5 0z" fill="#3a7cc3"></path><path d="M862.5 356.5L908.5 356.5L931.5 379.5" stroke-width="3.83" stroke="#3a7cc3"></path><path d="M856.75 356.5 a5.75 5.75 0 1 0 11.5 0 a5.75 5.75 0 1 0 -11.5 0zM925.75 379.5 a5.75 5.75 0 1 0 11.5 0 a5.75 5.75 0 1 0 -11.5 0z" fill="#3a7cc3"></path><path d="M747.5 356.5L724.5 333.5L678.5 333.5" stroke-width="3.83" stroke="#3a7cc3"></path><path d="M741.75 356.5 a5.75 5.75 0 1 0 11.5 0 a5.75 5.75 0 1 0 -11.5 0zM672.75 333.5 a5.75 5.75 0 1 0 11.5 0 a5.75 5.75 0 1 0 -11.5 0z" fill="#3a7cc3"></path><path d="M402.5 149.5L379.5 172.5L379.5 218.5" stroke-width="3.83" stroke="#3a7cc3"></path><path d="M396.75 149.5 a5.75 5.75 0 1 0 11.5 0 a5.75 5.75 0 1 0 -11.5 0zM373.75 218.5 a5.75 5.75 0 1 0 11.5 0 a5.75 5.75 0 1 0 -11.5 0z" fill="#3a7cc3"></path><path d="M1322.5 517.5L1345.5 517.5L1368.5 540.5" stroke-width="3.83" stroke="#3a7cc3"></path><path d="M1316.75 517.5 a5.75 5.75 0 1 0 11.5 0 a5.75 5.75 0 1 0 -11.5 0zM1362.75 540.5 a5.75 5.75 0 1 0 11.5 0 a5.75 5.75 0 1 0 -11.5 0z" fill="#3a7cc3"></path><path d="M1230.5 310.5L1207.5 333.5L1207.5 356.5L1253.5 402.5" stroke-width="3.83" stroke="#3a7cc3"></path><path d="M1224.75 310.5 a5.75 5.75 0 1 0 11.5 0 a5.75 5.75 0 1 0 -11.5 0zM1247.75 402.5 a5.75 5.75 0 1 0 11.5 0 a5.75 5.75 0 1 0 -11.5 0z" fill="#3a7cc3"></path><path d="M1023.5 517.5L1000.5 494.5L977.5 494.5L931.5 540.5" stroke-width="3.83" stroke="#3a7cc3"></path><path d="M1017.75 517.5 a5.75 5.75 0 1 0 11.5 0 a5.75 5.75 0 1 0 -11.5 0zM925.75 540.5 a5.75 5.75 0 1 0 11.5 0 a5.75 5.75 0 1 0 -11.5 0z" fill="#3a7cc3"></path><path d="M264.5 402.5L218.5 402.5L195.5 379.5L172.5 379.5L126.5 425.5" stroke-width="3.83" stroke="#3a7cc3"></path><path d="M258.75 402.5 a5.75 5.75 0 1 0 11.5 0 a5.75 5.75 0 1 0 -11.5 0zM120.75 425.5 a5.75 5.75 0 1 0 11.5 0 a5.75 5.75 0 1 0 -11.5 0z" fill="#3a7cc3"></path><path d="M149.5 126.5L149.5 172.5" stroke-width="3.83" stroke="#3a7cc3"></path><path d="M143.75 126.5 a5.75 5.75 0 1 0 11.5 0 a5.75 5.75 0 1 0 -11.5 0zM143.75 172.5 a5.75 5.75 0 1 0 11.5 0 a5.75 5.75 0 1 0 -11.5 0z" fill="#3a7cc3"></path><path d="M1414.5 494.5L1368.5 448.5L1368.5 425.5" stroke-width="3.83" stroke="#3a7cc3"></path><path d="M1408.75 494.5 a5.75 5.75 0 1 0 11.5 0 a5.75 5.75 0 1 0 -11.5 0zM1362.75 425.5 a5.75 5.75 0 1 0 11.5 0 a5.75 5.75 0 1 0 -11.5 0z" fill="#3a7cc3"></path><path d="M448.5 172.5L448.5 149.5L425.5 126.5" stroke-width="3.83" stroke="#3a7cc3"></path><path d="M442.75 172.5 a5.75 5.75 0 1 0 11.5 0 a5.75 5.75 0 1 0 -11.5 0zM419.75 126.5 a5.75 5.75 0 1 0 11.5 0 a5.75 5.75 0 1 0 -11.5 0z" fill="#3a7cc3"></path><path d="M195.5 80.5L195.5 34.5" stroke-width="3.83" stroke="#3a7cc3"></path><path d="M189.75 80.5 a5.75 5.75 0 1 0 11.5 0 a5.75 5.75 0 1 0 -11.5 0zM189.75 34.5 a5.75 5.75 0 1 0 11.5 0 a5.75 5.75 0 1 0 -11.5 0z" fill="#3a7cc3"></path><path d="M954.5 11.5L954.5 57.5" stroke-width="3.83" stroke="#3a7cc3"></path><path d="M948.75 11.5 a5.75 5.75 0 1 0 11.5 0 a5.75 5.75 0 1 0 -11.5 0zM948.75 57.5 a5.75 5.75 0 1 0 11.5 0 a5.75 5.75 0 1 0 -11.5 0z" fill="#3a7cc3"></path><path d="M1322.5 333.5L1345.5 333.5L1368.5 356.5L1437.5 356.5" stroke-width="3.83" stroke="#3a7cc3"></path><path d="M1316.75 333.5 a5.75 5.75 0 1 0 11.5 0 a5.75 5.75 0 1 0 -11.5 0zM1431.75 356.5 a5.75 5.75 0 1 0 11.5 0 a5.75 5.75 0 1 0 -11.5 0z" fill="#3a7cc3"></path><path d="M172.5 126.5L218.5 126.5L241.5 149.5L264.5 149.5" stroke-width="3.83" stroke="#3a7cc3"></path><path d="M166.75 126.5 a5.75 5.75 0 1 0 11.5 0 a5.75 5.75 0 1 0 -11.5 0zM258.75 149.5 a5.75 5.75 0 1 0 11.5 0 a5.75 5.75 0 1 0 -11.5 0z" fill="#3a7cc3"></path><path d="M770.5 34.5L770.5 57.5L747.5 80.5" stroke-width="3.83" stroke="#3a7cc3"></path><path d="M764.75 34.5 a5.75 5.75 0 1 0 11.5 0 a5.75 5.75 0 1 0 -11.5 0zM741.75 80.5 a5.75 5.75 0 1 0 11.5 0 a5.75 5.75 0 1 0 -11.5 0z" fill="#3a7cc3"></path><path d="M701.5 149.5L701.5 34.5" stroke-width="3.83" stroke="#3a7cc3"></path><path d="M695.75 149.5 a5.75 5.75 0 1 0 11.5 0 a5.75 5.75 0 1 0 -11.5 0zM695.75 34.5 a5.75 5.75 0 1 0 11.5 0 a5.75 5.75 0 1 0 -11.5 0z" fill="#3a7cc3"></path><path d="M1299.5 540.5L1345.5 540.5" stroke-width="3.83" stroke="#3a7cc3"></path><path d="M1293.75 540.5 a5.75 5.75 0 1 0 11.5 0 a5.75 5.75 0 1 0 -11.5 0zM1339.75 540.5 a5.75 5.75 0 1 0 11.5 0 a5.75 5.75 0 1 0 -11.5 0z" fill="#3a7cc3"></path><path d="M1414.5 402.5L1437.5 425.5L1437.5 517.5" stroke-width="3.83" stroke="#3a7cc3"></path><path d="M1408.75 402.5 a5.75 5.75 0 1 0 11.5 0 a5.75 5.75 0 1 0 -11.5 0zM1431.75 517.5 a5.75 5.75 0 1 0 11.5 0 a5.75 5.75 0 1 0 -11.5 0z" fill="#3a7cc3"></path><path d="M1437.5 34.5L1414.5 11.5L1391.5 11.5" stroke-width="3.83" stroke="#3a7cc3"></path><path d="M1431.75 34.5 a5.75 5.75 0 1 0 11.5 0 a5.75 5.75 0 1 0 -11.5 0zM1385.75 11.5 a5.75 5.75 0 1 0 11.5 0 a5.75 5.75 0 1 0 -11.5 0z" fill="#3a7cc3"></path><path d="M586.5 172.5L586.5 218.5" stroke-width="3.83" stroke="#3a7cc3"></path><path d="M580.75 172.5 a5.75 5.75 0 1 0 11.5 0 a5.75 5.75 0 1 0 -11.5 0zM580.75 218.5 a5.75 5.75 0 1 0 11.5 0 a5.75 5.75 0 1 0 -11.5 0z" fill="#3a7cc3"></path><path d="M908.5 11.5L908.5 103.5" stroke-width="3.83" stroke="#3a7cc3"></path><path d="M902.75 11.5 a5.75 5.75 0 1 0 11.5 0 a5.75 5.75 0 1 0 -11.5 0zM902.75 103.5 a5.75 5.75 0 1 0 11.5 0 a5.75 5.75 0 1 0 -11.5 0z" fill="#3a7cc3"></path><path d="M540.5 126.5L540.5 80.5" stroke-width="3.83" stroke="#3a7cc3"></path><path d="M534.75 126.5 a5.75 5.75 0 1 0 11.5 0 a5.75 5.75 0 1 0 -11.5 0zM534.75 80.5 a5.75 5.75 0 1 0 11.5 0 a5.75 5.75 0 1 0 -11.5 0z" fill="#3a7cc3"></path><path d="M1437.5 333.5L1391.5 333.5" stroke-width="3.83" stroke="#3a7cc3"></path><path d="M1431.75 333.5 a5.75 5.75 0 1 0 11.5 0 a5.75 5.75 0 1 0 -11.5 0zM1385.75 333.5 a5.75 5.75 0 1 0 11.5 0 a5.75 5.75 0 1 0 -11.5 0z" fill="#3a7cc3"></path><path d="M678.5 356.5L724.5 356.5" stroke-width="3.83" stroke="#3a7cc3"></path><path d="M672.75 356.5 a5.75 5.75 0 1 0 11.5 0 a5.75 5.75 0 1 0 -11.5 0zM718.75 356.5 a5.75 5.75 0 1 0 11.5 0 a5.75 5.75 0 1 0 -11.5 0z" fill="#3a7cc3"></path><path d="M402.5 57.5L356.5 57.5" stroke-width="3.83" stroke="#3a7cc3"></path><path d="M396.75 57.5 a5.75 5.75 0 1 0 11.5 0 a5.75 5.75 0 1 0 -11.5 0zM350.75 57.5 a5.75 5.75 0 1 0 11.5 0 a5.75 5.75 0 1 0 -11.5 0z" fill="#3a7cc3"></path><path d="M1000.5 471.5L1046.5 517.5L1046.5 540.5" stroke-width="3.83" stroke="#3a7cc3"></path><path d="M994.75 471.5 a5.75 5.75 0 1 0 11.5 0 a5.75 5.75 0 1 0 -11.5 0zM1040.75 540.5 a5.75 5.75 0 1 0 11.5 0 a5.75 5.75 0 1 0 -11.5 0z" fill="#3a7cc3"></path><path d="M839.5 402.5L862.5 402.5L885.5 379.5L908.5 379.5" stroke-width="3.83" stroke="#3a7cc3"></path><path d="M833.75 402.5 a5.75 5.75 0 1 0 11.5 0 a5.75 5.75 0 1 0 -11.5 0zM902.75 379.5 a5.75 5.75 0 1 0 11.5 0 a5.75 5.75 0 1 0 -11.5 0z" fill="#3a7cc3"></path><path d="M241.5 264.5L379.5 264.5" stroke-width="3.83" stroke="#3a7cc3"></path><path d="M235.75 264.5 a5.75 5.75 0 1 0 11.5 0 a5.75 5.75 0 1 0 -11.5 0zM373.75 264.5 a5.75 5.75 0 1 0 11.5 0 a5.75 5.75 0 1 0 -11.5 0z" fill="#3a7cc3"></path><path d="M356.5 126.5L379.5 103.5L379.5 80.5" stroke-width="3.83" stroke="#3a7cc3"></path><path d="M350.75 126.5 a5.75 5.75 0 1 0 11.5 0 a5.75 5.75 0 1 0 -11.5 0zM373.75 80.5 a5.75 5.75 0 1 0 11.5 0 a5.75 5.75 0 1 0 -11.5 0z" fill="#3a7cc3"></path><path d="M1299.5 57.5L1299.5 11.5" stroke-width="3.83" stroke="#3a7cc3"></path><path d="M1293.75 57.5 a5.75 5.75 0 1 0 11.5 0 a5.75 5.75 0 1 0 -11.5 0zM1293.75 11.5 a5.75 5.75 0 1 0 11.5 0 a5.75 5.75 0 1 0 -11.5 0z" fill="#3a7cc3"></path><path d="M1000.5 264.5L954.5 264.5" stroke-width="3.83" stroke="#3a7cc3"></path><path d="M994.75 264.5 a5.75 5.75 0 1 0 11.5 0 a5.75 5.75 0 1 0 -11.5 0zM948.75 264.5 a5.75 5.75 0 1 0 11.5 0 a5.75 5.75 0 1 0 -11.5 0z" fill="#3a7cc3"></path><path d="M1437.5 264.5L1414.5 287.5L1414.5 310.5" stroke-width="3.83" stroke="#3a7cc3"></path><path d="M1431.75 264.5 a5.75 5.75 0 1 0 11.5 0 a5.75 5.75 0 1 0 -11.5 0zM1408.75 310.5 a5.75 5.75 0 1 0 11.5 0 a5.75 5.75 0 1 0 -11.5 0z" fill="#3a7cc3"></path><path d="M126.5 57.5L149.5 34.5L172.5 34.5" stroke-width="3.83" stroke="#3a7cc3"></path><path d="M120.75 57.5 a5.75 5.75 0 1 0 11.5 0 a5.75 5.75 0 1 0 -11.5 0zM166.75 34.5 a5.75 5.75 0 1 0 11.5 0 a5.75 5.75 0 1 0 -11.5 0z" fill="#3a7cc3"></path><path d="M218.5 425.5L287.5 425.5" stroke-width="3.83" stroke="#3a7cc3"></path><path d="M212.75 425.5 a5.75 5.75 0 1 0 11.5 0 a5.75 5.75 0 1 0 -11.5 0zM281.75 425.5 a5.75 5.75 0 1 0 11.5 0 a5.75 5.75 0 1 0 -11.5 0z" fill="#3a7cc3"></path><path d="M1069.5 425.5L1069.5 402.5L1046.5 379.5L1023.5 379.5" stroke-width="3.83" stroke="#3a7cc3"></path><path d="M1063.75 425.5 a5.75 5.75 0 1 0 11.5 0 a5.75 5.75 0 1 0 -11.5 0zM1017.75 379.5 a5.75 5.75 0 1 0 11.5 0 a5.75 5.75 0 1 0 -11.5 0z" fill="#3a7cc3"></path></g></g><defs><mask id="SvgjsMask1254"><rect width="1440" height="560" fill="#ffffff"></rect></mask><linearGradient x1="15.28%" y1="-39.29%" x2="84.72%" y2="139.29%" gradientUnits="userSpaceOnUse" id="SvgjsLinearGradient1255"><stop stop-color="#0e2a47" offset="0"></stop><stop stop-color="rgba(4, 0, 158, 1)" offset="1"></stop></linearGradient><mask id="SvgjsMask1256"><rect width="1440" height="560" fill="white"></rect><path d="M1227.62 448.5 a2.88 2.88 0 1 0 5.76 0 a2.88 2.88 0 1 0 -5.76 0zM1434.62 563.5 a2.88 2.88 0 1 0 5.76 0 a2.88 2.88 0 1 0 -5.76 0z" fill="black"></path><path d="M399.62 264.5 a2.88 2.88 0 1 0 5.76 0 a2.88 2.88 0 1 0 -5.76 0zM560.62 563.5 a2.88 2.88 0 1 0 5.76 0 a2.88 2.88 0 1 0 -5.76 0z" fill="black"></path><path d="M284.62 563.5 a2.88 2.88 0 1 0 5.76 0 a2.88 2.88 0 1 0 -5.76 0zM8.62 563.5 a2.88 2.88 0 1 0 5.76 0 a2.88 2.88 0 1 0 -5.76 0z" fill="black"></path><path d="M399.62 103.5 a2.88 2.88 0 1 0 5.76 0 a2.88 2.88 0 1 0 -5.76 0zM8.62 195.5 a2.88 2.88 0 1 0 5.76 0 a2.88 2.88 0 1 0 -5.76 0z" fill="black"></path><path d="M146.62 540.5 a2.88 2.88 0 1 0 5.76 0 a2.88 2.88 0 1 0 -5.76 0zM8.62 540.5 a2.88 2.88 0 1 0 5.76 0 a2.88 2.88 0 1 0 -5.76 0z" fill="black"></path><path d="M31.62 402.5 a2.88 2.88 0 1 0 5.76 0 a2.88 2.88 0 1 0 -5.76 0zM353.62 195.5 a2.88 2.88 0 1 0 5.76 0 a2.88 2.88 0 1 0 -5.76 0z" fill="black"></path><path d="M675.62 264.5 a2.88 2.88 0 1 0 5.76 0 a2.88 2.88 0 1 0 -5.76 0zM675.62 11.5 a2.88 2.88 0 1 0 5.76 0 a2.88 2.88 0 1 0 -5.76 0z" fill="black"></path><path d="M767.62 379.5 a2.88 2.88 0 1 0 5.76 0 a2.88 2.88 0 1 0 -5.76 0zM399.62 471.5 a2.88 2.88 0 1 0 5.76 0 a2.88 2.88 0 1 0 -5.76 0z" fill="black"></path><path d="M606.62 172.5 a2.88 2.88 0 1 0 5.76 0 a2.88 2.88 0 1 0 -5.76 0zM399.62 448.5 a2.88 2.88 0 1 0 5.76 0 a2.88 2.88 0 1 0 -5.76 0z" fill="black"></path><path d="M1135.62 471.5 a2.88 2.88 0 1 0 5.76 0 a2.88 2.88 0 1 0 -5.76 0zM790.62 103.5 a2.88 2.88 0 1 0 5.76 0 a2.88 2.88 0 1 0 -5.76 0z" fill="black"></path><path d="M54.62 333.5 a2.88 2.88 0 1 0 5.76 0 a2.88 2.88 0 1 0 -5.76 0zM353.62 356.5 a2.88 2.88 0 1 0 5.76 0 a2.88 2.88 0 1 0 -5.76 0z" fill="black"></path><path d="M422.62 57.5 a2.88 2.88 0 1 0 5.76 0 a2.88 2.88 0 1 0 -5.76 0zM445.62 11.5 a2.88 2.88 0 1 0 5.76 0 a2.88 2.88 0 1 0 -5.76 0z" fill="black"></path><path d="M445.62 80.5 a2.88 2.88 0 1 0 5.76 0 a2.88 2.88 0 1 0 -5.76 0zM560.62 333.5 a2.88 2.88 0 1 0 5.76 0 a2.88 2.88 0 1 0 -5.76 0z" fill="black"></path><path d="M1342.62 103.5 a2.88 2.88 0 1 0 5.76 0 a2.88 2.88 0 1 0 -5.76 0zM1342.62 11.5 a2.88 2.88 0 1 0 5.76 0 a2.88 2.88 0 1 0 -5.76 0z" fill="black"></path><path d="M1089.62 310.5 a2.88 2.88 0 1 0 5.76 0 a2.88 2.88 0 1 0 -5.76 0zM1411.62 563.5 a2.88 2.88 0 1 0 5.76 0 a2.88 2.88 0 1 0 -5.76 0z" fill="black"></path><path d="M1112.62 218.5 a2.88 2.88 0 1 0 5.76 0 a2.88 2.88 0 1 0 -5.76 0zM1181.62 471.5 a2.88 2.88 0 1 0 5.76 0 a2.88 2.88 0 1 0 -5.76 0z" fill="black"></path><path d="M1250.62 11.5 a2.88 2.88 0 1 0 5.76 0 a2.88 2.88 0 1 0 -5.76 0zM1250.62 425.5 a2.88 2.88 0 1 0 5.76 0 a2.88 2.88 0 1 0 -5.76 0z" fill="black"></path><path d="M1135.62 103.5 a2.88 2.88 0 1 0 5.76 0 a2.88 2.88 0 1 0 -5.76 0zM813.62 172.5 a2.88 2.88 0 1 0 5.76 0 a2.88 2.88 0 1 0 -5.76 0z" fill="black"></path><path d="M790.62 57.5 a2.88 2.88 0 1 0 5.76 0 a2.88 2.88 0 1 0 -5.76 0zM1227.62 11.5 a2.88 2.88 0 1 0 5.76 0 a2.88 2.88 0 1 0 -5.76 0z" fill="black"></path><path d="M1112.62 448.5 a2.88 2.88 0 1 0 5.76 0 a2.88 2.88 0 1 0 -5.76 0zM813.62 195.5 a2.88 2.88 0 1 0 5.76 0 a2.88 2.88 0 1 0 -5.76 0z" fill="black"></path><path d="M399.62 80.5 a2.88 2.88 0 1 0 5.76 0 a2.88 2.88 0 1 0 -5.76 0zM537.62 379.5 a2.88 2.88 0 1 0 5.76 0 a2.88 2.88 0 1 0 -5.76 0z" fill="black"></path><path d="M629.62 402.5 a2.88 2.88 0 1 0 5.76 0 a2.88 2.88 0 1 0 -5.76 0zM629.62 448.5 a2.88 2.88 0 1 0 5.76 0 a2.88 2.88 0 1 0 -5.76 0z" fill="black"></path><path d="M744.62 563.5 a2.88 2.88 0 1 0 5.76 0 a2.88 2.88 0 1 0 -5.76 0zM1043.62 471.5 a2.88 2.88 0 1 0 5.76 0 a2.88 2.88 0 1 0 -5.76 0z" fill="black"></path><path d="M629.62 195.5 a2.88 2.88 0 1 0 5.76 0 a2.88 2.88 0 1 0 -5.76 0zM629.62 11.5 a2.88 2.88 0 1 0 5.76 0 a2.88 2.88 0 1 0 -5.76 0z" fill="black"></path><path d="M215.62 540.5 a2.88 2.88 0 1 0 5.76 0 a2.88 2.88 0 1 0 -5.76 0zM353.62 425.5 a2.88 2.88 0 1 0 5.76 0 a2.88 2.88 0 1 0 -5.76 0z" fill="black"></path><path d="M422.62 310.5 a2.88 2.88 0 1 0 5.76 0 a2.88 2.88 0 1 0 -5.76 0zM514.62 379.5 a2.88 2.88 0 1 0 5.76 0 a2.88 2.88 0 1 0 -5.76 0z" fill="black"></path><path d="M629.62 241.5 a2.88 2.88 0 1 0 5.76 0 a2.88 2.88 0 1 0 -5.76 0zM422.62 448.5 a2.88 2.88 0 1 0 5.76 0 a2.88 2.88 0 1 0 -5.76 0z" fill="black"></path><path d="M698.62 540.5 a2.88 2.88 0 1 0 5.76 0 a2.88 2.88 0 1 0 -5.76 0zM698.62 471.5 a2.88 2.88 0 1 0 5.76 0 a2.88 2.88 0 1 0 -5.76 0z" fill="black"></path><path d="M997.62 126.5 a2.88 2.88 0 1 0 5.76 0 a2.88 2.88 0 1 0 -5.76 0zM997.62 11.5 a2.88 2.88 0 1 0 5.76 0 a2.88 2.88 0 1 0 -5.76 0z" fill="black"></path><path d="M330.62 103.5 a2.88 2.88 0 1 0 5.76 0 a2.88 2.88 0 1 0 -5.76 0zM330.62 11.5 a2.88 2.88 0 1 0 5.76 0 a2.88 2.88 0 1 0 -5.76 0z" fill="black"></path><path d="M790.62 287.5 a2.88 2.88 0 1 0 5.76 0 a2.88 2.88 0 1 0 -5.76 0zM790.62 356.5 a2.88 2.88 0 1 0 5.76 0 a2.88 2.88 0 1 0 -5.76 0z" fill="black"></path><path d="M1319.62 80.5 a2.88 2.88 0 1 0 5.76 0 a2.88 2.88 0 1 0 -5.76 0zM1273.62 425.5 a2.88 2.88 0 1 0 5.76 0 a2.88 2.88 0 1 0 -5.76 0z" fill="black"></path><path d="M882.62 264.5 a2.88 2.88 0 1 0 5.76 0 a2.88 2.88 0 1 0 -5.76 0zM1089.62 448.5 a2.88 2.88 0 1 0 5.76 0 a2.88 2.88 0 1 0 -5.76 0z" fill="black"></path><path d="M54.62 126.5 a2.88 2.88 0 1 0 5.76 0 a2.88 2.88 0 1 0 -5.76 0zM8.62 172.5 a2.88 2.88 0 1 0 5.76 0 a2.88 2.88 0 1 0 -5.76 0z" fill="black"></path><path d="M169.62 471.5 a2.88 2.88 0 1 0 5.76 0 a2.88 2.88 0 1 0 -5.76 0zM54.62 356.5 a2.88 2.88 0 1 0 5.76 0 a2.88 2.88 0 1 0 -5.76 0z" fill="black"></path><path d="M146.62 241.5 a2.88 2.88 0 1 0 5.76 0 a2.88 2.88 0 1 0 -5.76 0zM54.62 310.5 a2.88 2.88 0 1 0 5.76 0 a2.88 2.88 0 1 0 -5.76 0z" fill="black"></path><path d="M859.62 448.5 a2.88 2.88 0 1 0 5.76 0 a2.88 2.88 0 1 0 -5.76 0zM744.62 448.5 a2.88 2.88 0 1 0 5.76 0 a2.88 2.88 0 1 0 -5.76 0z" fill="black"></path><path d="M8.62 80.5 a2.88 2.88 0 1 0 5.76 0 a2.88 2.88 0 1 0 -5.76 0zM307.62 11.5 a2.88 2.88 0 1 0 5.76 0 a2.88 2.88 0 1 0 -5.76 0z" fill="black"></path><path d="M1112.62 494.5 a2.88 2.88 0 1 0 5.76 0 a2.88 2.88 0 1 0 -5.76 0zM1273.62 563.5 a2.88 2.88 0 1 0 5.76 0 a2.88 2.88 0 1 0 -5.76 0z" fill="black"></path><path d="M836.62 80.5 a2.88 2.88 0 1 0 5.76 0 a2.88 2.88 0 1 0 -5.76 0zM698.62 11.5 a2.88 2.88 0 1 0 5.76 0 a2.88 2.88 0 1 0 -5.76 0z" fill="black"></path><path d="M1388.62 149.5 a2.88 2.88 0 1 0 5.76 0 a2.88 2.88 0 1 0 -5.76 0zM1365.62 11.5 a2.88 2.88 0 1 0 5.76 0 a2.88 2.88 0 1 0 -5.76 0z" fill="black"></path><path d="M261.62 448.5 a2.88 2.88 0 1 0 5.76 0 a2.88 2.88 0 1 0 -5.76 0zM77.62 356.5 a2.88 2.88 0 1 0 5.76 0 a2.88 2.88 0 1 0 -5.76 0z" fill="black"></path><path d="M652.62 494.5 a2.88 2.88 0 1 0 5.76 0 a2.88 2.88 0 1 0 -5.76 0zM675.62 563.5 a2.88 2.88 0 1 0 5.76 0 a2.88 2.88 0 1 0 -5.76 0z" fill="black"></path><path d="M1411.62 448.5 a2.88 2.88 0 1 0 5.76 0 a2.88 2.88 0 1 0 -5.76 0zM1434.62 172.5 a2.88 2.88 0 1 0 5.76 0 a2.88 2.88 0 1 0 -5.76 0z" fill="black"></path><path d="M905.62 540.5 a2.88 2.88 0 1 0 5.76 0 a2.88 2.88 0 1 0 -5.76 0zM997.62 448.5 a2.88 2.88 0 1 0 5.76 0 a2.88 2.88 0 1 0 -5.76 0z" fill="black"></path><path d="M1043.62 80.5 a2.88 2.88 0 1 0 5.76 0 a2.88 2.88 0 1 0 -5.76 0zM1020.62 126.5 a2.88 2.88 0 1 0 5.76 0 a2.88 2.88 0 1 0 -5.76 0z" fill="black"></path><path d="M951.62 241.5 a2.88 2.88 0 1 0 5.76 0 a2.88 2.88 0 1 0 -5.76 0zM882.62 218.5 a2.88 2.88 0 1 0 5.76 0 a2.88 2.88 0 1 0 -5.76 0z" fill="black"></path><path d="M744.62 264.5 a2.88 2.88 0 1 0 5.76 0 a2.88 2.88 0 1 0 -5.76 0zM767.62 172.5 a2.88 2.88 0 1 0 5.76 0 a2.88 2.88 0 1 0 -5.76 0z" fill="black"></path><path d="M422.62 34.5 a2.88 2.88 0 1 0 5.76 0 a2.88 2.88 0 1 0 -5.76 0zM353.62 34.5 a2.88 2.88 0 1 0 5.76 0 a2.88 2.88 0 1 0 -5.76 0z" fill="black"></path><path d="M192.62 287.5 a2.88 2.88 0 1 0 5.76 0 a2.88 2.88 0 1 0 -5.76 0zM77.62 310.5 a2.88 2.88 0 1 0 5.76 0 a2.88 2.88 0 1 0 -5.76 0z" fill="black"></path><path d="M8.62 218.5 a2.88 2.88 0 1 0 5.76 0 a2.88 2.88 0 1 0 -5.76 0zM8.62 517.5 a2.88 2.88 0 1 0 5.76 0 a2.88 2.88 0 1 0 -5.76 0z" fill="black"></path><path d="M606.62 126.5 a2.88 2.88 0 1 0 5.76 0 a2.88 2.88 0 1 0 -5.76 0zM560.62 11.5 a2.88 2.88 0 1 0 5.76 0 a2.88 2.88 0 1 0 -5.76 0z" fill="black"></path><path d="M997.62 517.5 a2.88 2.88 0 1 0 5.76 0 a2.88 2.88 0 1 0 -5.76 0zM1135.62 563.5 a2.88 2.88 0 1 0 5.76 0 a2.88 2.88 0 1 0 -5.76 0z" fill="black"></path><path d="M721.62 80.5 a2.88 2.88 0 1 0 5.76 0 a2.88 2.88 0 1 0 -5.76 0zM721.62 241.5 a2.88 2.88 0 1 0 5.76 0 a2.88 2.88 0 1 0 -5.76 0z" fill="black"></path><path d="M1227.62 126.5 a2.88 2.88 0 1 0 5.76 0 a2.88 2.88 0 1 0 -5.76 0zM1158.62 80.5 a2.88 2.88 0 1 0 5.76 0 a2.88 2.88 0 1 0 -5.76 0z" fill="black"></path><path d="M1250.62 494.5 a2.88 2.88 0 1 0 5.76 0 a2.88 2.88 0 1 0 -5.76 0zM1204.62 494.5 a2.88 2.88 0 1 0 5.76 0 a2.88 2.88 0 1 0 -5.76 0z" fill="black"></path><path d="M491.62 103.5 a2.88 2.88 0 1 0 5.76 0 a2.88 2.88 0 1 0 -5.76 0zM537.62 34.5 a2.88 2.88 0 1 0 5.76 0 a2.88 2.88 0 1 0 -5.76 0z" fill="black"></path><path d="M1066.62 494.5 a2.88 2.88 0 1 0 5.76 0 a2.88 2.88 0 1 0 -5.76 0zM1135.62 540.5 a2.88 2.88 0 1 0 5.76 0 a2.88 2.88 0 1 0 -5.76 0z" fill="black"></path><path d="M215.62 264.5 a2.88 2.88 0 1 0 5.76 0 a2.88 2.88 0 1 0 -5.76 0zM514.62 241.5 a2.88 2.88 0 1 0 5.76 0 a2.88 2.88 0 1 0 -5.76 0z" fill="black"></path><path d="M307.62 471.5 a2.88 2.88 0 1 0 5.76 0 a2.88 2.88 0 1 0 -5.76 0zM353.62 448.5 a2.88 2.88 0 1 0 5.76 0 a2.88 2.88 0 1 0 -5.76 0z" fill="black"></path><path d="M1273.62 517.5 a2.88 2.88 0 1 0 5.76 0 a2.88 2.88 0 1 0 -5.76 0zM1227.62 517.5 a2.88 2.88 0 1 0 5.76 0 a2.88 2.88 0 1 0 -5.76 0z" fill="black"></path><path d="M192.62 172.5 a2.88 2.88 0 1 0 5.76 0 a2.88 2.88 0 1 0 -5.76 0zM307.62 34.5 a2.88 2.88 0 1 0 5.76 0 a2.88 2.88 0 1 0 -5.76 0z" fill="black"></path><path d="M1135.62 218.5 a2.88 2.88 0 1 0 5.76 0 a2.88 2.88 0 1 0 -5.76 0zM1158.62 103.5 a2.88 2.88 0 1 0 5.76 0 a2.88 2.88 0 1 0 -5.76 0z" fill="black"></path><path d="M1273.62 149.5 a2.88 2.88 0 1 0 5.76 0 a2.88 2.88 0 1 0 -5.76 0zM1273.62 218.5 a2.88 2.88 0 1 0 5.76 0 a2.88 2.88 0 1 0 -5.76 0z" fill="black"></path><path d="M1342.62 494.5 a2.88 2.88 0 1 0 5.76 0 a2.88 2.88 0 1 0 -5.76 0zM1411.62 540.5 a2.88 2.88 0 1 0 5.76 0 a2.88 2.88 0 1 0 -5.76 0z" fill="black"></path><path d="M192.62 494.5 a2.88 2.88 0 1 0 5.76 0 a2.88 2.88 0 1 0 -5.76 0zM123.62 471.5 a2.88 2.88 0 1 0 5.76 0 a2.88 2.88 0 1 0 -5.76 0z" fill="black"></path><path d="M307.62 287.5 a2.88 2.88 0 1 0 5.76 0 a2.88 2.88 0 1 0 -5.76 0zM330.62 333.5 a2.88 2.88 0 1 0 5.76 0 a2.88 2.88 0 1 0 -5.76 0z" fill="black"></path><path d="M123.62 103.5 a2.88 2.88 0 1 0 5.76 0 a2.88 2.88 0 1 0 -5.76 0zM31.62 103.5 a2.88 2.88 0 1 0 5.76 0 a2.88 2.88 0 1 0 -5.76 0z" fill="black"></path><path d="M422.62 540.5 a2.88 2.88 0 1 0 5.76 0 a2.88 2.88 0 1 0 -5.76 0zM399.62 494.5 a2.88 2.88 0 1 0 5.76 0 a2.88 2.88 0 1 0 -5.76 0z" fill="black"></path><path d="M836.62 287.5 a2.88 2.88 0 1 0 5.76 0 a2.88 2.88 0 1 0 -5.76 0zM790.62 218.5 a2.88 2.88 0 1 0 5.76 0 a2.88 2.88 0 1 0 -5.76 0z" fill="black"></path><path d="M836.62 540.5 a2.88 2.88 0 1 0 5.76 0 a2.88 2.88 0 1 0 -5.76 0zM1020.62 563.5 a2.88 2.88 0 1 0 5.76 0 a2.88 2.88 0 1 0 -5.76 0z" fill="black"></path><path d="M652.62 172.5 a2.88 2.88 0 1 0 5.76 0 a2.88 2.88 0 1 0 -5.76 0zM652.62 287.5 a2.88 2.88 0 1 0 5.76 0 a2.88 2.88 0 1 0 -5.76 0z" fill="black"></path><path d="M468.62 126.5 a2.88 2.88 0 1 0 5.76 0 a2.88 2.88 0 1 0 -5.76 0zM468.62 57.5 a2.88 2.88 0 1 0 5.76 0 a2.88 2.88 0 1 0 -5.76 0z" fill="black"></path><path d="M215.62 310.5 a2.88 2.88 0 1 0 5.76 0 a2.88 2.88 0 1 0 -5.76 0zM123.62 310.5 a2.88 2.88 0 1 0 5.76 0 a2.88 2.88 0 1 0 -5.76 0z" fill="black"></path><path d="M1066.62 57.5 a2.88 2.88 0 1 0 5.76 0 a2.88 2.88 0 1 0 -5.76 0zM1181.62 11.5 a2.88 2.88 0 1 0 5.76 0 a2.88 2.88 0 1 0 -5.76 0z" fill="black"></path><path d="M882.62 494.5 a2.88 2.88 0 1 0 5.76 0 a2.88 2.88 0 1 0 -5.76 0zM859.62 540.5 a2.88 2.88 0 1 0 5.76 0 a2.88 2.88 0 1 0 -5.76 0z" fill="black"></path><path d="M1020.62 195.5 a2.88 2.88 0 1 0 5.76 0 a2.88 2.88 0 1 0 -5.76 0zM1089.62 287.5 a2.88 2.88 0 1 0 5.76 0 a2.88 2.88 0 1 0 -5.76 0z" fill="black"></path><path d="M1135.62 172.5 a2.88 2.88 0 1 0 5.76 0 a2.88 2.88 0 1 0 -5.76 0zM1135.62 126.5 a2.88 2.88 0 1 0 5.76 0 a2.88 2.88 0 1 0 -5.76 0z" fill="black"></path><path d="M1020.62 402.5 a2.88 2.88 0 1 0 5.76 0 a2.88 2.88 0 1 0 -5.76 0zM974.62 310.5 a2.88 2.88 0 1 0 5.76 0 a2.88 2.88 0 1 0 -5.76 0z" fill="black"></path><path d="M1181.62 195.5 a2.88 2.88 0 1 0 5.76 0 a2.88 2.88 0 1 0 -5.76 0zM1227.62 195.5 a2.88 2.88 0 1 0 5.76 0 a2.88 2.88 0 1 0 -5.76 0z" fill="black"></path><path d="M974.62 11.5 a2.88 2.88 0 1 0 5.76 0 a2.88 2.88 0 1 0 -5.76 0zM974.62 126.5 a2.88 2.88 0 1 0 5.76 0 a2.88 2.88 0 1 0 -5.76 0z" fill="black"></path><path d="M1273.62 80.5 a2.88 2.88 0 1 0 5.76 0 a2.88 2.88 0 1 0 -5.76 0zM1273.62 11.5 a2.88 2.88 0 1 0 5.76 0 a2.88 2.88 0 1 0 -5.76 0z" fill="black"></path><path d="M790.62 471.5 a2.88 2.88 0 1 0 5.76 0 a2.88 2.88 0 1 0 -5.76 0zM974.62 425.5 a2.88 2.88 0 1 0 5.76 0 a2.88 2.88 0 1 0 -5.76 0z" fill="black"></path><path d="M330.62 471.5 a2.88 2.88 0 1 0 5.76 0 a2.88 2.88 0 1 0 -5.76 0zM238.62 540.5 a2.88 2.88 0 1 0 5.76 0 a2.88 2.88 0 1 0 -5.76 0z" fill="black"></path><path d="M744.62 126.5 a2.88 2.88 0 1 0 5.76 0 a2.88 2.88 0 1 0 -5.76 0zM744.62 241.5 a2.88 2.88 0 1 0 5.76 0 a2.88 2.88 0 1 0 -5.76 0z" fill="black"></path><path d="M491.62 356.5 a2.88 2.88 0 1 0 5.76 0 a2.88 2.88 0 1 0 -5.76 0zM491.62 264.5 a2.88 2.88 0 1 0 5.76 0 a2.88 2.88 0 1 0 -5.76 0z" fill="black"></path><path d="M238.62 103.5 a2.88 2.88 0 1 0 5.76 0 a2.88 2.88 0 1 0 -5.76 0zM77.62 34.5 a2.88 2.88 0 1 0 5.76 0 a2.88 2.88 0 1 0 -5.76 0z" fill="black"></path><path d="M215.62 379.5 a2.88 2.88 0 1 0 5.76 0 a2.88 2.88 0 1 0 -5.76 0zM353.62 379.5 a2.88 2.88 0 1 0 5.76 0 a2.88 2.88 0 1 0 -5.76 0z" fill="black"></path><path d="M422.62 218.5 a2.88 2.88 0 1 0 5.76 0 a2.88 2.88 0 1 0 -5.76 0zM514.62 218.5 a2.88 2.88 0 1 0 5.76 0 a2.88 2.88 0 1 0 -5.76 0z" fill="black"></path><path d="M399.62 333.5 a2.88 2.88 0 1 0 5.76 0 a2.88 2.88 0 1 0 -5.76 0zM468.62 264.5 a2.88 2.88 0 1 0 5.76 0 a2.88 2.88 0 1 0 -5.76 0z" fill="black"></path><path d="M1204.62 540.5 a2.88 2.88 0 1 0 5.76 0 a2.88 2.88 0 1 0 -5.76 0zM1135.62 494.5 a2.88 2.88 0 1 0 5.76 0 a2.88 2.88 0 1 0 -5.76 0z" fill="black"></path><path d="M928.62 494.5 a2.88 2.88 0 1 0 5.76 0 a2.88 2.88 0 1 0 -5.76 0zM882.62 540.5 a2.88 2.88 0 1 0 5.76 0 a2.88 2.88 0 1 0 -5.76 0z" fill="black"></path><path d="M1365.62 310.5 a2.88 2.88 0 1 0 5.76 0 a2.88 2.88 0 1 0 -5.76 0zM1388.62 195.5 a2.88 2.88 0 1 0 5.76 0 a2.88 2.88 0 1 0 -5.76 0z" fill="black"></path><path d="M123.62 126.5 a2.88 2.88 0 1 0 5.76 0 a2.88 2.88 0 1 0 -5.76 0zM54.62 172.5 a2.88 2.88 0 1 0 5.76 0 a2.88 2.88 0 1 0 -5.76 0z" fill="black"></path><path d="M1342.62 425.5 a2.88 2.88 0 1 0 5.76 0 a2.88 2.88 0 1 0 -5.76 0zM1296.62 425.5 a2.88 2.88 0 1 0 5.76 0 a2.88 2.88 0 1 0 -5.76 0z" fill="black"></path><path d="M629.62 563.5 a2.88 2.88 0 1 0 5.76 0 a2.88 2.88 0 1 0 -5.76 0zM422.62 494.5 a2.88 2.88 0 1 0 5.76 0 a2.88 2.88 0 1 0 -5.76 0z" fill="black"></path><path d="M1250.62 471.5 a2.88 2.88 0 1 0 5.76 0 a2.88 2.88 0 1 0 -5.76 0zM1342.62 471.5 a2.88 2.88 0 1 0 5.76 0 a2.88 2.88 0 1 0 -5.76 0z" fill="black"></path><path d="M376.62 563.5 a2.88 2.88 0 1 0 5.76 0 a2.88 2.88 0 1 0 -5.76 0zM353.62 471.5 a2.88 2.88 0 1 0 5.76 0 a2.88 2.88 0 1 0 -5.76 0z" fill="black"></path><path d="M997.62 195.5 a2.88 2.88 0 1 0 5.76 0 a2.88 2.88 0 1 0 -5.76 0zM1066.62 287.5 a2.88 2.88 0 1 0 5.76 0 a2.88 2.88 0 1 0 -5.76 0z" fill="black"></path><path d="M238.62 126.5 a2.88 2.88 0 1 0 5.76 0 a2.88 2.88 0 1 0 -5.76 0zM284.62 126.5 a2.88 2.88 0 1 0 5.76 0 a2.88 2.88 0 1 0 -5.76 0z" fill="black"></path><path d="M583.62 540.5 a2.88 2.88 0 1 0 5.76 0 a2.88 2.88 0 1 0 -5.76 0zM422.62 517.5 a2.88 2.88 0 1 0 5.76 0 a2.88 2.88 0 1 0 -5.76 0z" fill="black"></path><path d="M652.62 103.5 a2.88 2.88 0 1 0 5.76 0 a2.88 2.88 0 1 0 -5.76 0zM652.62 149.5 a2.88 2.88 0 1 0 5.76 0 a2.88 2.88 0 1 0 -5.76 0z" fill="black"></path><path d="M1043.62 11.5 a2.88 2.88 0 1 0 5.76 0 a2.88 2.88 0 1 0 -5.76 0zM1158.62 11.5 a2.88 2.88 0 1 0 5.76 0 a2.88 2.88 0 1 0 -5.76 0z" fill="black"></path><path d="M1135.62 195.5 a2.88 2.88 0 1 0 5.76 0 a2.88 2.88 0 1 0 -5.76 0zM1043.62 195.5 a2.88 2.88 0 1 0 5.76 0 a2.88 2.88 0 1 0 -5.76 0z" fill="black"></path><path d="M882.62 402.5 a2.88 2.88 0 1 0 5.76 0 a2.88 2.88 0 1 0 -5.76 0zM767.62 425.5 a2.88 2.88 0 1 0 5.76 0 a2.88 2.88 0 1 0 -5.76 0z" fill="black"></path><path d="M1204.62 218.5 a2.88 2.88 0 1 0 5.76 0 a2.88 2.88 0 1 0 -5.76 0zM1227.62 241.5 a2.88 2.88 0 1 0 5.76 0 a2.88 2.88 0 1 0 -5.76 0z" fill="black"></path><path d="M1365.62 333.5 a2.88 2.88 0 1 0 5.76 0 a2.88 2.88 0 1 0 -5.76 0zM1365.62 195.5 a2.88 2.88 0 1 0 5.76 0 a2.88 2.88 0 1 0 -5.76 0z" fill="black"></path><path d="M77.62 471.5 a2.88 2.88 0 1 0 5.76 0 a2.88 2.88 0 1 0 -5.76 0zM123.62 517.5 a2.88 2.88 0 1 0 5.76 0 a2.88 2.88 0 1 0 -5.76 0z" fill="black"></path><path d="M399.62 11.5 a2.88 2.88 0 1 0 5.76 0 a2.88 2.88 0 1 0 -5.76 0zM353.62 11.5 a2.88 2.88 0 1 0 5.76 0 a2.88 2.88 0 1 0 -5.76 0z" fill="black"></path><path d="M813.62 540.5 a2.88 2.88 0 1 0 5.76 0 a2.88 2.88 0 1 0 -5.76 0zM744.62 471.5 a2.88 2.88 0 1 0 5.76 0 a2.88 2.88 0 1 0 -5.76 0z" fill="black"></path><path d="M1066.62 379.5 a2.88 2.88 0 1 0 5.76 0 a2.88 2.88 0 1 0 -5.76 0zM997.62 333.5 a2.88 2.88 0 1 0 5.76 0 a2.88 2.88 0 1 0 -5.76 0z" fill="black"></path><path d="M813.62 11.5 a2.88 2.88 0 1 0 5.76 0 a2.88 2.88 0 1 0 -5.76 0zM951.62 126.5 a2.88 2.88 0 1 0 5.76 0 a2.88 2.88 0 1 0 -5.76 0z" fill="black"></path><path d="M31.62 448.5 a2.88 2.88 0 1 0 5.76 0 a2.88 2.88 0 1 0 -5.76 0zM100.62 517.5 a2.88 2.88 0 1 0 5.76 0 a2.88 2.88 0 1 0 -5.76 0z" fill="black"></path><path d="M1365.62 264.5 a2.88 2.88 0 1 0 5.76 0 a2.88 2.88 0 1 0 -5.76 0zM1365.62 218.5 a2.88 2.88 0 1 0 5.76 0 a2.88 2.88 0 1 0 -5.76 0z" fill="black"></path><path d="M468.62 310.5 a2.88 2.88 0 1 0 5.76 0 a2.88 2.88 0 1 0 -5.76 0zM422.62 287.5 a2.88 2.88 0 1 0 5.76 0 a2.88 2.88 0 1 0 -5.76 0z" fill="black"></path><path d="M1342.62 172.5 a2.88 2.88 0 1 0 5.76 0 a2.88 2.88 0 1 0 -5.76 0zM1365.62 80.5 a2.88 2.88 0 1 0 5.76 0 a2.88 2.88 0 1 0 -5.76 0z" fill="black"></path><path d="M31.62 218.5 a2.88 2.88 0 1 0 5.76 0 a2.88 2.88 0 1 0 -5.76 0zM77.62 218.5 a2.88 2.88 0 1 0 5.76 0 a2.88 2.88 0 1 0 -5.76 0z" fill="black"></path><path d="M1388.62 57.5 a2.88 2.88 0 1 0 5.76 0 a2.88 2.88 0 1 0 -5.76 0zM1411.62 149.5 a2.88 2.88 0 1 0 5.76 0 a2.88 2.88 0 1 0 -5.76 0z" fill="black"></path><path d="M445.62 517.5 a2.88 2.88 0 1 0 5.76 0 a2.88 2.88 0 1 0 -5.76 0zM606.62 517.5 a2.88 2.88 0 1 0 5.76 0 a2.88 2.88 0 1 0 -5.76 0z" fill="black"></path><path d="M215.62 241.5 a2.88 2.88 0 1 0 5.76 0 a2.88 2.88 0 1 0 -5.76 0zM169.62 241.5 a2.88 2.88 0 1 0 5.76 0 a2.88 2.88 0 1 0 -5.76 0z" fill="black"></path><path d="M100.62 425.5 a2.88 2.88 0 1 0 5.76 0 a2.88 2.88 0 1 0 -5.76 0zM261.62 356.5 a2.88 2.88 0 1 0 5.76 0 a2.88 2.88 0 1 0 -5.76 0z" fill="black"></path><path d="M767.62 540.5 a2.88 2.88 0 1 0 5.76 0 a2.88 2.88 0 1 0 -5.76 0zM836.62 563.5 a2.88 2.88 0 1 0 5.76 0 a2.88 2.88 0 1 0 -5.76 0z" fill="black"></path><path d="M1319.62 34.5 a2.88 2.88 0 1 0 5.76 0 a2.88 2.88 0 1 0 -5.76 0zM1273.62 126.5 a2.88 2.88 0 1 0 5.76 0 a2.88 2.88 0 1 0 -5.76 0z" fill="black"></path><path d="M859.62 356.5 a2.88 2.88 0 1 0 5.76 0 a2.88 2.88 0 1 0 -5.76 0zM928.62 379.5 a2.88 2.88 0 1 0 5.76 0 a2.88 2.88 0 1 0 -5.76 0z" fill="black"></path><path d="M744.62 356.5 a2.88 2.88 0 1 0 5.76 0 a2.88 2.88 0 1 0 -5.76 0zM675.62 333.5 a2.88 2.88 0 1 0 5.76 0 a2.88 2.88 0 1 0 -5.76 0z" fill="black"></path><path d="M399.62 149.5 a2.88 2.88 0 1 0 5.76 0 a2.88 2.88 0 1 0 -5.76 0zM376.62 218.5 a2.88 2.88 0 1 0 5.76 0 a2.88 2.88 0 1 0 -5.76 0z" fill="black"></path><path d="M1319.62 517.5 a2.88 2.88 0 1 0 5.76 0 a2.88 2.88 0 1 0 -5.76 0zM1365.62 540.5 a2.88 2.88 0 1 0 5.76 0 a2.88 2.88 0 1 0 -5.76 0z" fill="black"></path><path d="M1227.62 310.5 a2.88 2.88 0 1 0 5.76 0 a2.88 2.88 0 1 0 -5.76 0zM1250.62 402.5 a2.88 2.88 0 1 0 5.76 0 a2.88 2.88 0 1 0 -5.76 0z" fill="black"></path><path d="M1020.62 517.5 a2.88 2.88 0 1 0 5.76 0 a2.88 2.88 0 1 0 -5.76 0zM928.62 540.5 a2.88 2.88 0 1 0 5.76 0 a2.88 2.88 0 1 0 -5.76 0z" fill="black"></path><path d="M261.62 402.5 a2.88 2.88 0 1 0 5.76 0 a2.88 2.88 0 1 0 -5.76 0zM123.62 425.5 a2.88 2.88 0 1 0 5.76 0 a2.88 2.88 0 1 0 -5.76 0z" fill="black"></path><path d="M146.62 126.5 a2.88 2.88 0 1 0 5.76 0 a2.88 2.88 0 1 0 -5.76 0zM146.62 172.5 a2.88 2.88 0 1 0 5.76 0 a2.88 2.88 0 1 0 -5.76 0z" fill="black"></path><path d="M1411.62 494.5 a2.88 2.88 0 1 0 5.76 0 a2.88 2.88 0 1 0 -5.76 0zM1365.62 425.5 a2.88 2.88 0 1 0 5.76 0 a2.88 2.88 0 1 0 -5.76 0z" fill="black"></path><path d="M445.62 172.5 a2.88 2.88 0 1 0 5.76 0 a2.88 2.88 0 1 0 -5.76 0zM422.62 126.5 a2.88 2.88 0 1 0 5.76 0 a2.88 2.88 0 1 0 -5.76 0z" fill="black"></path><path d="M192.62 80.5 a2.88 2.88 0 1 0 5.76 0 a2.88 2.88 0 1 0 -5.76 0zM192.62 34.5 a2.88 2.88 0 1 0 5.76 0 a2.88 2.88 0 1 0 -5.76 0z" fill="black"></path><path d="M951.62 11.5 a2.88 2.88 0 1 0 5.76 0 a2.88 2.88 0 1 0 -5.76 0zM951.62 57.5 a2.88 2.88 0 1 0 5.76 0 a2.88 2.88 0 1 0 -5.76 0z" fill="black"></path><path d="M1319.62 333.5 a2.88 2.88 0 1 0 5.76 0 a2.88 2.88 0 1 0 -5.76 0zM1434.62 356.5 a2.88 2.88 0 1 0 5.76 0 a2.88 2.88 0 1 0 -5.76 0z" fill="black"></path><path d="M169.62 126.5 a2.88 2.88 0 1 0 5.76 0 a2.88 2.88 0 1 0 -5.76 0zM261.62 149.5 a2.88 2.88 0 1 0 5.76 0 a2.88 2.88 0 1 0 -5.76 0z" fill="black"></path><path d="M767.62 34.5 a2.88 2.88 0 1 0 5.76 0 a2.88 2.88 0 1 0 -5.76 0zM744.62 80.5 a2.88 2.88 0 1 0 5.76 0 a2.88 2.88 0 1 0 -5.76 0z" fill="black"></path><path d="M698.62 149.5 a2.88 2.88 0 1 0 5.76 0 a2.88 2.88 0 1 0 -5.76 0zM698.62 34.5 a2.88 2.88 0 1 0 5.76 0 a2.88 2.88 0 1 0 -5.76 0z" fill="black"></path><path d="M1296.62 540.5 a2.88 2.88 0 1 0 5.76 0 a2.88 2.88 0 1 0 -5.76 0zM1342.62 540.5 a2.88 2.88 0 1 0 5.76 0 a2.88 2.88 0 1 0 -5.76 0z" fill="black"></path><path d="M1411.62 402.5 a2.88 2.88 0 1 0 5.76 0 a2.88 2.88 0 1 0 -5.76 0zM1434.62 517.5 a2.88 2.88 0 1 0 5.76 0 a2.88 2.88 0 1 0 -5.76 0z" fill="black"></path><path d="M1434.62 34.5 a2.88 2.88 0 1 0 5.76 0 a2.88 2.88 0 1 0 -5.76 0zM1388.62 11.5 a2.88 2.88 0 1 0 5.76 0 a2.88 2.88 0 1 0 -5.76 0z" fill="black"></path><path d="M583.62 172.5 a2.88 2.88 0 1 0 5.76 0 a2.88 2.88 0 1 0 -5.76 0zM583.62 218.5 a2.88 2.88 0 1 0 5.76 0 a2.88 2.88 0 1 0 -5.76 0z" fill="black"></path><path d="M905.62 11.5 a2.88 2.88 0 1 0 5.76 0 a2.88 2.88 0 1 0 -5.76 0zM905.62 103.5 a2.88 2.88 0 1 0 5.76 0 a2.88 2.88 0 1 0 -5.76 0z" fill="black"></path><path d="M537.62 126.5 a2.88 2.88 0 1 0 5.76 0 a2.88 2.88 0 1 0 -5.76 0zM537.62 80.5 a2.88 2.88 0 1 0 5.76 0 a2.88 2.88 0 1 0 -5.76 0z" fill="black"></path><path d="M1434.62 333.5 a2.88 2.88 0 1 0 5.76 0 a2.88 2.88 0 1 0 -5.76 0zM1388.62 333.5 a2.88 2.88 0 1 0 5.76 0 a2.88 2.88 0 1 0 -5.76 0z" fill="black"></path><path d="M675.62 356.5 a2.88 2.88 0 1 0 5.76 0 a2.88 2.88 0 1 0 -5.76 0zM721.62 356.5 a2.88 2.88 0 1 0 5.76 0 a2.88 2.88 0 1 0 -5.76 0z" fill="black"></path><path d="M399.62 57.5 a2.88 2.88 0 1 0 5.76 0 a2.88 2.88 0 1 0 -5.76 0zM353.62 57.5 a2.88 2.88 0 1 0 5.76 0 a2.88 2.88 0 1 0 -5.76 0z" fill="black"></path><path d="M997.62 471.5 a2.88 2.88 0 1 0 5.76 0 a2.88 2.88 0 1 0 -5.76 0zM1043.62 540.5 a2.88 2.88 0 1 0 5.76 0 a2.88 2.88 0 1 0 -5.76 0z" fill="black"></path><path d="M836.62 402.5 a2.88 2.88 0 1 0 5.76 0 a2.88 2.88 0 1 0 -5.76 0zM905.62 379.5 a2.88 2.88 0 1 0 5.76 0 a2.88 2.88 0 1 0 -5.76 0z" fill="black"></path><path d="M238.62 264.5 a2.88 2.88 0 1 0 5.76 0 a2.88 2.88 0 1 0 -5.76 0zM376.62 264.5 a2.88 2.88 0 1 0 5.76 0 a2.88 2.88 0 1 0 -5.76 0z" fill="black"></path><path d="M353.62 126.5 a2.88 2.88 0 1 0 5.76 0 a2.88 2.88 0 1 0 -5.76 0zM376.62 80.5 a2.88 2.88 0 1 0 5.76 0 a2.88 2.88 0 1 0 -5.76 0z" fill="black"></path><path d="M1296.62 57.5 a2.88 2.88 0 1 0 5.76 0 a2.88 2.88 0 1 0 -5.76 0zM1296.62 11.5 a2.88 2.88 0 1 0 5.76 0 a2.88 2.88 0 1 0 -5.76 0z" fill="black"></path><path d="M997.62 264.5 a2.88 2.88 0 1 0 5.76 0 a2.88 2.88 0 1 0 -5.76 0zM951.62 264.5 a2.88 2.88 0 1 0 5.76 0 a2.88 2.88 0 1 0 -5.76 0z" fill="black"></path><path d="M1434.62 264.5 a2.88 2.88 0 1 0 5.76 0 a2.88 2.88 0 1 0 -5.76 0zM1411.62 310.5 a2.88 2.88 0 1 0 5.76 0 a2.88 2.88 0 1 0 -5.76 0z" fill="black"></path><path d="M123.62 57.5 a2.88 2.88 0 1 0 5.76 0 a2.88 2.88 0 1 0 -5.76 0zM169.62 34.5 a2.88 2.88 0 1 0 5.76 0 a2.88 2.88 0 1 0 -5.76 0z" fill="black"></path><path d="M215.62 425.5 a2.88 2.88 0 1 0 5.76 0 a2.88 2.88 0 1 0 -5.76 0zM284.62 425.5 a2.88 2.88 0 1 0 5.76 0 a2.88 2.88 0 1 0 -5.76 0z" fill="black"></path><path d="M1066.62 425.5 a2.88 2.88 0 1 0 5.76 0 a2.88 2.88 0 1 0 -5.76 0zM1020.62 379.5 a2.88 2.88 0 1 0 5.76 0 a2.88 2.88 0 1 0 -5.76 0z" fill="black"></path></mask></defs></svg>