<svg xmlns="http://www.w3.org/2000/svg" version="1.1" xmlns:xlink="http://www.w3.org/1999/xlink" xmlns:svgjs="http://svgjs.dev/svgjs" width="1440" height="560" preserveAspectRatio="none" viewBox="0 0 1440 560"><g mask="url(&quot;#SvgjsMask1444&quot;)" fill="none"><rect width="1440" height="560" x="0" y="0" fill="url(&quot;#SvgjsLinearGradient1445&quot;)"></rect><g mask="url(&quot;#SvgjsMask1446&quot;)"><path d="M-10.5 283.5L10.5 283.5L31.5 283.5L52.5 283.5L73.5 283.5L94.5 283.5L115.5 283.5L136.5 283.5" stroke="#3a7cc3" stroke-width="3.5"></path><path d="M131.25 283.5 a5.25 5.25 0 1 0 10.5 0 a5.25 5.25 0 1 0 -10.5 0z" fill="#3a7cc3"></path><path d="M787.5 199.5L808.5 220.5M514.5 199.5L535.5 199.5L556.5 199.5L577.5 220.5L598.5 220.5L619.5 220.5L640.5 220.5L661.5 220.5L682.5 220.5L703.5 220.5L724.5 220.5L745.5 220.5L766.5 220.5L787.5 220.5L808.5 241.5L829.5 241.5L850.5 241.5L871.5 241.5L892.5 241.5L913.5 262.5L934.5 262.5M1207.5 178.5L1228.5 178.5L1249.5 178.5L1270.5 178.5L1291.5 178.5L1312.5 178.5L1333.5 178.5L1354.5 178.5L1375.5 178.5L1396.5 178.5M388.5 199.5L409.5 220.5L430.5 220.5L451.5 220.5L472.5 220.5L493.5 220.5M997.5 199.5L1018.5 178.5L1039.5 178.5L1060.5 178.5L1081.5 157.5L1102.5 157.5L1123.5 157.5L1144.5 157.5M1102.5 178.5L1123.5 199.5L1144.5 220.5L1165.5 220.5L1186.5 220.5L1207.5 220.5L1228.5 220.5L1249.5 220.5L1270.5 241.5L1291.5 241.5L1312.5 241.5L1333.5 220.5L1354.5 220.5L1375.5 220.5L1396.5 220.5M1228.5 157.5L1249.5 136.5L1270.5 136.5L1291.5 136.5L1312.5 136.5L1333.5 136.5M955.5 199.5L976.5 220.5M703.5 178.5L724.5 178.5L745.5 178.5L766.5 178.5L787.5 178.5L808.5 178.5L829.5 178.5L850.5 178.5L871.5 178.5L892.5 178.5L913.5 178.5L934.5 178.5L955.5 178.5L976.5 178.5L997.5 178.5L1018.5 157.5L1039.5 157.5L1060.5 157.5L1081.5 136.5L1102.5 136.5M220.5 241.5L241.5 241.5L262.5 241.5L283.5 241.5L304.5 241.5L325.5 241.5L346.5 241.5L367.5 241.5L388.5 241.5L409.5 241.5L430.5 241.5L451.5 241.5L472.5 241.5L493.5 241.5L514.5 241.5L535.5 241.5L556.5 241.5L577.5 241.5L598.5 241.5L619.5 241.5L640.5 241.5L661.5 241.5L682.5 241.5L703.5 241.5M1060.5 199.5L1081.5 199.5M1186.5 178.5L1207.5 157.5L1228.5 136.5M304.5 199.5L325.5 220.5L346.5 220.5L367.5 220.5L388.5 220.5M871.5 199.5L892.5 220.5L913.5 220.5L934.5 220.5L955.5 220.5M52.5 262.5L73.5 241.5L94.5 241.5L115.5 241.5L136.5 241.5L157.5 241.5M31.5 262.5L52.5 241.5M619.5 178.5L640.5 157.5L661.5 157.5L682.5 157.5L703.5 157.5M-10.5 262.5L10.5 262.5L31.5 262.5L52.5 262.5L73.5 262.5L94.5 262.5L115.5 262.5L136.5 262.5L157.5 262.5L178.5 241.5L199.5 241.5L220.5 241.5L241.5 220.5L262.5 220.5L283.5 199.5L304.5 199.5L325.5 199.5L346.5 199.5L367.5 199.5L388.5 199.5L409.5 199.5L430.5 199.5L451.5 199.5L472.5 199.5L493.5 199.5L514.5 199.5L535.5 178.5L556.5 178.5L577.5 178.5L598.5 178.5L619.5 178.5L640.5 178.5L661.5 178.5L682.5 178.5L703.5 178.5L724.5 199.5L745.5 199.5L766.5 199.5L787.5 199.5L808.5 199.5L829.5 199.5L850.5 199.5L871.5 199.5L892.5 199.5L913.5 199.5L934.5 199.5L955.5 199.5L976.5 199.5L997.5 199.5L1018.5 199.5L1039.5 199.5L1060.5 199.5L1081.5 178.5L1102.5 178.5L1123.5 178.5L1144.5 178.5L1165.5 178.5L1186.5 178.5L1207.5 178.5L1228.5 157.5L1249.5 157.5L1270.5 157.5L1291.5 157.5L1312.5 157.5L1333.5 157.5L1354.5 157.5L1375.5 157.5L1396.5 136.5" stroke="#dd1133" stroke-width="3.5"></path><path d="M1391.25 136.5 a5.25 5.25 0 1 0 10.5 0 a5.25 5.25 0 1 0 -10.5 0zM803.25 220.5 a5.25 5.25 0 1 0 10.5 0 a5.25 5.25 0 1 0 -10.5 0zM929.25 262.5 a5.25 5.25 0 1 0 10.5 0 a5.25 5.25 0 1 0 -10.5 0zM1391.25 178.5 a5.25 5.25 0 1 0 10.5 0 a5.25 5.25 0 1 0 -10.5 0zM488.25 220.5 a5.25 5.25 0 1 0 10.5 0 a5.25 5.25 0 1 0 -10.5 0zM1139.25 157.5 a5.25 5.25 0 1 0 10.5 0 a5.25 5.25 0 1 0 -10.5 0zM1391.25 220.5 a5.25 5.25 0 1 0 10.5 0 a5.25 5.25 0 1 0 -10.5 0zM1328.25 136.5 a5.25 5.25 0 1 0 10.5 0 a5.25 5.25 0 1 0 -10.5 0zM971.25 220.5 a5.25 5.25 0 1 0 10.5 0 a5.25 5.25 0 1 0 -10.5 0zM1097.25 136.5 a5.25 5.25 0 1 0 10.5 0 a5.25 5.25 0 1 0 -10.5 0zM698.25 241.5 a5.25 5.25 0 1 0 10.5 0 a5.25 5.25 0 1 0 -10.5 0zM1076.25 199.5 a5.25 5.25 0 1 0 10.5 0 a5.25 5.25 0 1 0 -10.5 0zM1223.25 136.5 a5.25 5.25 0 1 0 10.5 0 a5.25 5.25 0 1 0 -10.5 0zM383.25 220.5 a5.25 5.25 0 1 0 10.5 0 a5.25 5.25 0 1 0 -10.5 0zM950.25 220.5 a5.25 5.25 0 1 0 10.5 0 a5.25 5.25 0 1 0 -10.5 0zM152.25 241.5 a5.25 5.25 0 1 0 10.5 0 a5.25 5.25 0 1 0 -10.5 0zM47.25 241.5 a5.25 5.25 0 1 0 10.5 0 a5.25 5.25 0 1 0 -10.5 0zM698.25 157.5 a5.25 5.25 0 1 0 10.5 0 a5.25 5.25 0 1 0 -10.5 0z" fill="#dd1133"></path><path d="M388.5 325.5L409.5 304.5L430.5 304.5L451.5 304.5L472.5 304.5L493.5 304.5M682.5 325.5L703.5 304.5L724.5 283.5L745.5 283.5M577.5 325.5L598.5 304.5L619.5 304.5L640.5 304.5M157.5 283.5L178.5 304.5L199.5 304.5M346.5 304.5L367.5 304.5L388.5 304.5L409.5 283.5L430.5 283.5L451.5 283.5L472.5 283.5M241.5 283.5L262.5 262.5L283.5 262.5L304.5 262.5L325.5 262.5L346.5 262.5L367.5 262.5L388.5 262.5L409.5 262.5L430.5 262.5L451.5 262.5M199.5 283.5L220.5 262.5L241.5 262.5M661.5 325.5L682.5 304.5L703.5 283.5M514.5 325.5L535.5 304.5L556.5 304.5L577.5 304.5L598.5 283.5L619.5 283.5L640.5 283.5M325.5 304.5L346.5 283.5L367.5 283.5L388.5 283.5M-10.5 304.5L10.5 304.5L31.5 304.5L52.5 304.5L73.5 304.5L94.5 304.5L115.5 304.5L136.5 304.5L157.5 283.5L178.5 283.5L199.5 283.5L220.5 283.5L241.5 283.5L262.5 283.5L283.5 283.5L304.5 304.5L325.5 304.5L346.5 304.5L367.5 325.5L388.5 325.5L409.5 325.5L430.5 325.5L451.5 325.5L472.5 325.5L493.5 325.5L514.5 325.5L535.5 325.5L556.5 325.5L577.5 325.5L598.5 325.5L619.5 325.5L640.5 325.5L661.5 325.5L682.5 325.5L703.5 325.5L724.5 325.5L745.5 325.5L766.5 325.5L787.5 325.5L808.5 325.5L829.5 325.5L850.5 325.5" stroke="#3a7cc3" stroke-width="3.5"></path><path d="M845.25 325.5 a5.25 5.25 0 1 0 10.5 0 a5.25 5.25 0 1 0 -10.5 0zM488.25 304.5 a5.25 5.25 0 1 0 10.5 0 a5.25 5.25 0 1 0 -10.5 0zM740.25 283.5 a5.25 5.25 0 1 0 10.5 0 a5.25 5.25 0 1 0 -10.5 0zM635.25 304.5 a5.25 5.25 0 1 0 10.5 0 a5.25 5.25 0 1 0 -10.5 0zM194.25 304.5 a5.25 5.25 0 1 0 10.5 0 a5.25 5.25 0 1 0 -10.5 0zM467.25 283.5 a5.25 5.25 0 1 0 10.5 0 a5.25 5.25 0 1 0 -10.5 0zM446.25 262.5 a5.25 5.25 0 1 0 10.5 0 a5.25 5.25 0 1 0 -10.5 0zM236.25 262.5 a5.25 5.25 0 1 0 10.5 0 a5.25 5.25 0 1 0 -10.5 0zM698.25 283.5 a5.25 5.25 0 1 0 10.5 0 a5.25 5.25 0 1 0 -10.5 0zM635.25 283.5 a5.25 5.25 0 1 0 10.5 0 a5.25 5.25 0 1 0 -10.5 0zM383.25 283.5 a5.25 5.25 0 1 0 10.5 0 a5.25 5.25 0 1 0 -10.5 0z" fill="#3a7cc3"></path><path d="M10.5 220.5L31.5 241.5M-10.5 241.5L10.5 220.5L31.5 220.5L52.5 220.5L73.5 220.5L94.5 220.5L115.5 220.5L136.5 220.5L157.5 220.5L178.5 220.5L199.5 220.5L220.5 220.5L241.5 199.5L262.5 199.5L283.5 178.5L304.5 178.5L325.5 178.5L346.5 178.5L367.5 178.5" stroke="#3a7cc3" stroke-width="3.5"></path><path d="M362.25 178.5 a5.25 5.25 0 1 0 10.5 0 a5.25 5.25 0 1 0 -10.5 0zM26.25 241.5 a5.25 5.25 0 1 0 10.5 0 a5.25 5.25 0 1 0 -10.5 0z" fill="#3a7cc3"></path><path d="M598.5 346.5L619.5 367.5L640.5 367.5L661.5 367.5L682.5 367.5L703.5 388.5L724.5 388.5M682.5 346.5L703.5 346.5L724.5 346.5M535.5 346.5L556.5 367.5L577.5 367.5L598.5 388.5L619.5 388.5L640.5 409.5L661.5 409.5L682.5 388.5M493.5 346.5L514.5 367.5L535.5 367.5L556.5 388.5L577.5 388.5M220.5 304.5L241.5 325.5L262.5 325.5M472.5 346.5L493.5 367.5L514.5 388.5M325.5 325.5L346.5 346.5M199.5 325.5L220.5 325.5M-10.5 325.5L10.5 325.5L31.5 325.5L52.5 325.5L73.5 325.5L94.5 325.5L115.5 325.5L136.5 325.5L157.5 325.5L178.5 325.5L199.5 325.5L220.5 304.5L241.5 304.5L262.5 304.5L283.5 304.5L304.5 325.5L325.5 325.5L346.5 325.5L367.5 346.5L388.5 346.5L409.5 346.5L430.5 346.5L451.5 346.5L472.5 346.5L493.5 346.5L514.5 346.5L535.5 346.5L556.5 346.5L577.5 346.5L598.5 346.5L619.5 346.5L640.5 346.5L661.5 346.5L682.5 346.5L703.5 367.5L724.5 367.5" stroke="#3a7cc3" stroke-width="3.5"></path><path d="M719.25 367.5 a5.25 5.25 0 1 0 10.5 0 a5.25 5.25 0 1 0 -10.5 0zM719.25 388.5 a5.25 5.25 0 1 0 10.5 0 a5.25 5.25 0 1 0 -10.5 0zM719.25 346.5 a5.25 5.25 0 1 0 10.5 0 a5.25 5.25 0 1 0 -10.5 0zM677.25 388.5 a5.25 5.25 0 1 0 10.5 0 a5.25 5.25 0 1 0 -10.5 0zM572.25 388.5 a5.25 5.25 0 1 0 10.5 0 a5.25 5.25 0 1 0 -10.5 0zM257.25 325.5 a5.25 5.25 0 1 0 10.5 0 a5.25 5.25 0 1 0 -10.5 0zM509.25 388.5 a5.25 5.25 0 1 0 10.5 0 a5.25 5.25 0 1 0 -10.5 0zM341.25 346.5 a5.25 5.25 0 1 0 10.5 0 a5.25 5.25 0 1 0 -10.5 0zM215.25 325.5 a5.25 5.25 0 1 0 10.5 0 a5.25 5.25 0 1 0 -10.5 0z" fill="#3a7cc3"></path><path d="M325.5 157.5L346.5 136.5L367.5 136.5L388.5 136.5M409.5 157.5L430.5 157.5L451.5 157.5L472.5 157.5L493.5 157.5L514.5 157.5M556.5 157.5L577.5 136.5L598.5 136.5L619.5 115.5L640.5 115.5L661.5 115.5M283.5 157.5L304.5 136.5L325.5 136.5L346.5 115.5L367.5 115.5M115.5 199.5L136.5 178.5L157.5 178.5L178.5 178.5L199.5 178.5L220.5 178.5L241.5 157.5M598.5 157.5L619.5 157.5M94.5 199.5L115.5 178.5M535.5 157.5L556.5 136.5L577.5 115.5L598.5 115.5M-10.5 220.5L10.5 199.5L31.5 199.5L52.5 199.5L73.5 199.5L94.5 199.5L115.5 199.5L136.5 199.5L157.5 199.5L178.5 199.5L199.5 199.5L220.5 199.5L241.5 178.5L262.5 178.5L283.5 157.5L304.5 157.5L325.5 157.5L346.5 157.5L367.5 157.5L388.5 157.5L409.5 157.5L430.5 178.5L451.5 178.5L472.5 178.5L493.5 178.5L514.5 178.5L535.5 157.5L556.5 157.5L577.5 157.5L598.5 157.5L619.5 136.5L640.5 136.5L661.5 136.5L682.5 136.5" stroke="#dd1133" stroke-width="3.5"></path><path d="M677.25 136.5 a5.25 5.25 0 1 0 10.5 0 a5.25 5.25 0 1 0 -10.5 0zM383.25 136.5 a5.25 5.25 0 1 0 10.5 0 a5.25 5.25 0 1 0 -10.5 0zM509.25 157.5 a5.25 5.25 0 1 0 10.5 0 a5.25 5.25 0 1 0 -10.5 0zM656.25 115.5 a5.25 5.25 0 1 0 10.5 0 a5.25 5.25 0 1 0 -10.5 0zM362.25 115.5 a5.25 5.25 0 1 0 10.5 0 a5.25 5.25 0 1 0 -10.5 0zM236.25 157.5 a5.25 5.25 0 1 0 10.5 0 a5.25 5.25 0 1 0 -10.5 0zM614.25 157.5 a5.25 5.25 0 1 0 10.5 0 a5.25 5.25 0 1 0 -10.5 0zM110.25 178.5 a5.25 5.25 0 1 0 10.5 0 a5.25 5.25 0 1 0 -10.5 0zM593.25 115.5 a5.25 5.25 0 1 0 10.5 0 a5.25 5.25 0 1 0 -10.5 0z" fill="#dd1133"></path><path d="M262.5 346.5L283.5 346.5M-10.5 346.5L10.5 346.5L31.5 346.5L52.5 346.5L73.5 346.5L94.5 346.5L115.5 346.5L136.5 346.5L157.5 346.5L178.5 346.5L199.5 346.5L220.5 346.5L241.5 346.5L262.5 346.5L283.5 325.5" stroke="#dd1133" stroke-width="3.5"></path><path d="M278.25 325.5 a5.25 5.25 0 1 0 10.5 0 a5.25 5.25 0 1 0 -10.5 0zM278.25 346.5 a5.25 5.25 0 1 0 10.5 0 a5.25 5.25 0 1 0 -10.5 0z" fill="#dd1133"></path><path d="M199.5 136.5L220.5 115.5M115.5 157.5L136.5 157.5M241.5 136.5L262.5 136.5M-10.5 199.5L10.5 178.5L31.5 178.5L52.5 178.5L73.5 157.5L94.5 157.5L115.5 157.5L136.5 136.5L157.5 136.5L178.5 136.5L199.5 136.5L220.5 136.5L241.5 136.5L262.5 157.5" stroke="#dd1133" stroke-width="3.5"></path><path d="M257.25 157.5 a5.25 5.25 0 1 0 10.5 0 a5.25 5.25 0 1 0 -10.5 0zM215.25 115.5 a5.25 5.25 0 1 0 10.5 0 a5.25 5.25 0 1 0 -10.5 0zM131.25 157.5 a5.25 5.25 0 1 0 10.5 0 a5.25 5.25 0 1 0 -10.5 0zM257.25 136.5 a5.25 5.25 0 1 0 10.5 0 a5.25 5.25 0 1 0 -10.5 0z" fill="#dd1133"></path><path d="M220.5 367.5L241.5 388.5L262.5 388.5M577.5 409.5L598.5 409.5L619.5 409.5M304.5 367.5L325.5 388.5L346.5 388.5L367.5 388.5M73.5 367.5L94.5 388.5L115.5 388.5L136.5 388.5L157.5 388.5L178.5 388.5L199.5 388.5L220.5 388.5L241.5 409.5M808.5 409.5L829.5 430.5L850.5 430.5L871.5 451.5L892.5 451.5M430.5 367.5L451.5 388.5L472.5 409.5M640.5 430.5L661.5 451.5L682.5 451.5L703.5 451.5L724.5 451.5M283.5 367.5L304.5 388.5L325.5 409.5L346.5 409.5L367.5 409.5M514.5 409.5L535.5 430.5L556.5 430.5M619.5 430.5L640.5 451.5M-10.5 367.5L10.5 367.5L31.5 367.5L52.5 367.5L73.5 367.5L94.5 367.5L115.5 367.5L136.5 367.5L157.5 367.5L178.5 367.5L199.5 367.5L220.5 367.5L241.5 367.5L262.5 367.5L283.5 367.5L304.5 367.5L325.5 367.5L346.5 367.5L367.5 367.5L388.5 367.5L409.5 367.5L430.5 367.5L451.5 367.5L472.5 388.5L493.5 409.5L514.5 409.5L535.5 409.5L556.5 409.5L577.5 409.5L598.5 430.5L619.5 430.5L640.5 430.5L661.5 430.5L682.5 430.5L703.5 409.5L724.5 409.5L745.5 409.5L766.5 409.5L787.5 409.5L808.5 409.5L829.5 409.5" stroke="#dd1133" stroke-width="3.5"></path><path d="M824.25 409.5 a5.25 5.25 0 1 0 10.5 0 a5.25 5.25 0 1 0 -10.5 0zM257.25 388.5 a5.25 5.25 0 1 0 10.5 0 a5.25 5.25 0 1 0 -10.5 0zM614.25 409.5 a5.25 5.25 0 1 0 10.5 0 a5.25 5.25 0 1 0 -10.5 0zM362.25 388.5 a5.25 5.25 0 1 0 10.5 0 a5.25 5.25 0 1 0 -10.5 0zM236.25 409.5 a5.25 5.25 0 1 0 10.5 0 a5.25 5.25 0 1 0 -10.5 0zM887.25 451.5 a5.25 5.25 0 1 0 10.5 0 a5.25 5.25 0 1 0 -10.5 0zM467.25 409.5 a5.25 5.25 0 1 0 10.5 0 a5.25 5.25 0 1 0 -10.5 0zM719.25 451.5 a5.25 5.25 0 1 0 10.5 0 a5.25 5.25 0 1 0 -10.5 0zM362.25 409.5 a5.25 5.25 0 1 0 10.5 0 a5.25 5.25 0 1 0 -10.5 0zM551.25 430.5 a5.25 5.25 0 1 0 10.5 0 a5.25 5.25 0 1 0 -10.5 0zM635.25 451.5 a5.25 5.25 0 1 0 10.5 0 a5.25 5.25 0 1 0 -10.5 0z" fill="#dd1133"></path><path d="M73.5 136.5L94.5 136.5M178.5 94.5L199.5 115.5M136.5 115.5L157.5 94.5M-10.5 178.5L10.5 157.5L31.5 157.5L52.5 157.5L73.5 136.5L94.5 115.5L115.5 115.5L136.5 115.5L157.5 115.5L178.5 94.5L199.5 94.5L220.5 94.5" stroke="#3a7cc3" stroke-width="3.5"></path><path d="M215.25 94.5 a5.25 5.25 0 1 0 10.5 0 a5.25 5.25 0 1 0 -10.5 0zM89.25 136.5 a5.25 5.25 0 1 0 10.5 0 a5.25 5.25 0 1 0 -10.5 0zM194.25 115.5 a5.25 5.25 0 1 0 10.5 0 a5.25 5.25 0 1 0 -10.5 0zM152.25 94.5 a5.25 5.25 0 1 0 10.5 0 a5.25 5.25 0 1 0 -10.5 0z" fill="#3a7cc3"></path><path d="M10.5 388.5L31.5 409.5L52.5 409.5L73.5 409.5L94.5 409.5M-10.5 388.5L10.5 388.5L31.5 388.5" stroke="#dd1133" stroke-width="3.5"></path><path d="M26.25 388.5 a5.25 5.25 0 1 0 10.5 0 a5.25 5.25 0 1 0 -10.5 0zM89.25 409.5 a5.25 5.25 0 1 0 10.5 0 a5.25 5.25 0 1 0 -10.5 0z" fill="#dd1133"></path><path d="M220.5 73.5L241.5 52.5L262.5 52.5L283.5 52.5L304.5 52.5L325.5 52.5L346.5 52.5L367.5 52.5L388.5 52.5L409.5 52.5L430.5 52.5L451.5 52.5L472.5 52.5M493.5 94.5L514.5 115.5L535.5 115.5L556.5 115.5M829.5 115.5L850.5 136.5L871.5 136.5M682.5 94.5L703.5 115.5L724.5 115.5L745.5 115.5L766.5 136.5L787.5 136.5L808.5 136.5L829.5 136.5L850.5 157.5L871.5 157.5L892.5 157.5L913.5 157.5L934.5 157.5L955.5 157.5L976.5 157.5L997.5 157.5L1018.5 136.5L1039.5 136.5L1060.5 136.5M808.5 115.5L829.5 94.5L850.5 94.5L871.5 94.5L892.5 94.5M640.5 94.5L661.5 73.5L682.5 73.5L703.5 73.5L724.5 73.5L745.5 73.5L766.5 73.5L787.5 73.5L808.5 73.5L829.5 73.5L850.5 73.5M199.5 73.5L220.5 52.5M115.5 73.5L136.5 52.5L157.5 52.5L178.5 52.5L199.5 52.5M10.5 136.5L31.5 115.5M997.5 115.5L1018.5 94.5L1039.5 94.5M430.5 73.5L451.5 73.5L472.5 73.5L493.5 73.5L514.5 73.5L535.5 73.5L556.5 73.5L577.5 73.5L598.5 73.5L619.5 73.5L640.5 73.5L661.5 52.5L682.5 52.5L703.5 52.5L724.5 52.5L745.5 52.5L766.5 52.5L787.5 52.5L808.5 52.5L829.5 52.5L850.5 52.5L871.5 52.5M1165.5 115.5L1186.5 94.5L1207.5 94.5L1228.5 94.5M913.5 115.5L934.5 94.5L955.5 94.5L976.5 94.5M409.5 73.5L430.5 94.5L451.5 115.5M1186.5 115.5L1207.5 136.5M283.5 73.5L304.5 94.5L325.5 94.5L346.5 94.5L367.5 94.5L388.5 94.5L409.5 115.5M1144.5 115.5L1165.5 94.5L1186.5 73.5L1207.5 73.5L1228.5 73.5L1249.5 73.5L1270.5 73.5L1291.5 73.5L1312.5 73.5M-10.5 157.5L10.5 136.5L31.5 136.5L52.5 136.5L73.5 115.5L94.5 94.5L115.5 73.5L136.5 73.5L157.5 73.5L178.5 73.5L199.5 73.5L220.5 73.5L241.5 73.5L262.5 73.5L283.5 73.5L304.5 73.5L325.5 73.5L346.5 73.5L367.5 73.5L388.5 73.5L409.5 73.5L430.5 73.5L451.5 94.5L472.5 94.5L493.5 94.5L514.5 94.5L535.5 94.5L556.5 94.5L577.5 94.5L598.5 94.5L619.5 94.5L640.5 94.5L661.5 94.5L682.5 94.5L703.5 94.5L724.5 94.5L745.5 94.5L766.5 115.5L787.5 115.5L808.5 115.5L829.5 115.5L850.5 115.5L871.5 115.5L892.5 115.5L913.5 115.5L934.5 115.5L955.5 115.5L976.5 115.5L997.5 115.5L1018.5 115.5L1039.5 115.5L1060.5 115.5L1081.5 115.5L1102.5 115.5L1123.5 115.5L1144.5 115.5L1165.5 115.5L1186.5 115.5L1207.5 115.5L1228.5 115.5L1249.5 115.5L1270.5 115.5L1291.5 115.5L1312.5 115.5L1333.5 115.5L1354.5 136.5L1375.5 136.5L1396.5 115.5" stroke="#3a7cc3" stroke-width="3.5"></path><path d="M1391.25 115.5 a5.25 5.25 0 1 0 10.5 0 a5.25 5.25 0 1 0 -10.5 0zM467.25 52.5 a5.25 5.25 0 1 0 10.5 0 a5.25 5.25 0 1 0 -10.5 0zM551.25 115.5 a5.25 5.25 0 1 0 10.5 0 a5.25 5.25 0 1 0 -10.5 0zM866.25 136.5 a5.25 5.25 0 1 0 10.5 0 a5.25 5.25 0 1 0 -10.5 0zM1055.25 136.5 a5.25 5.25 0 1 0 10.5 0 a5.25 5.25 0 1 0 -10.5 0zM887.25 94.5 a5.25 5.25 0 1 0 10.5 0 a5.25 5.25 0 1 0 -10.5 0zM845.25 73.5 a5.25 5.25 0 1 0 10.5 0 a5.25 5.25 0 1 0 -10.5 0zM215.25 52.5 a5.25 5.25 0 1 0 10.5 0 a5.25 5.25 0 1 0 -10.5 0zM194.25 52.5 a5.25 5.25 0 1 0 10.5 0 a5.25 5.25 0 1 0 -10.5 0zM26.25 115.5 a5.25 5.25 0 1 0 10.5 0 a5.25 5.25 0 1 0 -10.5 0zM1034.25 94.5 a5.25 5.25 0 1 0 10.5 0 a5.25 5.25 0 1 0 -10.5 0zM866.25 52.5 a5.25 5.25 0 1 0 10.5 0 a5.25 5.25 0 1 0 -10.5 0zM1223.25 94.5 a5.25 5.25 0 1 0 10.5 0 a5.25 5.25 0 1 0 -10.5 0zM971.25 94.5 a5.25 5.25 0 1 0 10.5 0 a5.25 5.25 0 1 0 -10.5 0zM446.25 115.5 a5.25 5.25 0 1 0 10.5 0 a5.25 5.25 0 1 0 -10.5 0zM1202.25 136.5 a5.25 5.25 0 1 0 10.5 0 a5.25 5.25 0 1 0 -10.5 0zM404.25 115.5 a5.25 5.25 0 1 0 10.5 0 a5.25 5.25 0 1 0 -10.5 0zM1307.25 73.5 a5.25 5.25 0 1 0 10.5 0 a5.25 5.25 0 1 0 -10.5 0z" fill="#3a7cc3"></path></g></g><defs><mask id="SvgjsMask1444"><rect width="1440" height="560" fill="#ffffff"></rect></mask><linearGradient x1="15.28%" y1="-39.29%" x2="84.72%" y2="139.29%" gradientUnits="userSpaceOnUse" id="SvgjsLinearGradient1445"><stop stop-color="#0e2a47" offset="0"></stop><stop stop-color="rgba(36, 60, 91, 1)" offset="1"></stop></linearGradient><mask id="SvgjsMask1446"><rect width="1440" height="560" fill="white"></rect><path d="M133.87 283.5 a2.63 2.63 0 1 0 5.26 0 a2.63 2.63 0 1 0 -5.26 0z" fill="black"></path><path d="M1393.87 136.5 a2.63 2.63 0 1 0 5.26 0 a2.63 2.63 0 1 0 -5.26 0zM805.87 220.5 a2.63 2.63 0 1 0 5.26 0 a2.63 2.63 0 1 0 -5.26 0zM931.87 262.5 a2.63 2.63 0 1 0 5.26 0 a2.63 2.63 0 1 0 -5.26 0zM1393.87 178.5 a2.63 2.63 0 1 0 5.26 0 a2.63 2.63 0 1 0 -5.26 0zM490.87 220.5 a2.63 2.63 0 1 0 5.26 0 a2.63 2.63 0 1 0 -5.26 0zM1141.87 157.5 a2.63 2.63 0 1 0 5.26 0 a2.63 2.63 0 1 0 -5.26 0zM1393.87 220.5 a2.63 2.63 0 1 0 5.26 0 a2.63 2.63 0 1 0 -5.26 0zM1330.87 136.5 a2.63 2.63 0 1 0 5.26 0 a2.63 2.63 0 1 0 -5.26 0zM973.87 220.5 a2.63 2.63 0 1 0 5.26 0 a2.63 2.63 0 1 0 -5.26 0zM1099.87 136.5 a2.63 2.63 0 1 0 5.26 0 a2.63 2.63 0 1 0 -5.26 0zM700.87 241.5 a2.63 2.63 0 1 0 5.26 0 a2.63 2.63 0 1 0 -5.26 0zM1078.87 199.5 a2.63 2.63 0 1 0 5.26 0 a2.63 2.63 0 1 0 -5.26 0zM1225.87 136.5 a2.63 2.63 0 1 0 5.26 0 a2.63 2.63 0 1 0 -5.26 0zM385.87 220.5 a2.63 2.63 0 1 0 5.26 0 a2.63 2.63 0 1 0 -5.26 0zM952.87 220.5 a2.63 2.63 0 1 0 5.26 0 a2.63 2.63 0 1 0 -5.26 0zM154.87 241.5 a2.63 2.63 0 1 0 5.26 0 a2.63 2.63 0 1 0 -5.26 0zM49.87 241.5 a2.63 2.63 0 1 0 5.26 0 a2.63 2.63 0 1 0 -5.26 0zM700.87 157.5 a2.63 2.63 0 1 0 5.26 0 a2.63 2.63 0 1 0 -5.26 0z" fill="black"></path><path d="M847.87 325.5 a2.63 2.63 0 1 0 5.26 0 a2.63 2.63 0 1 0 -5.26 0zM490.87 304.5 a2.63 2.63 0 1 0 5.26 0 a2.63 2.63 0 1 0 -5.26 0zM742.87 283.5 a2.63 2.63 0 1 0 5.26 0 a2.63 2.63 0 1 0 -5.26 0zM637.87 304.5 a2.63 2.63 0 1 0 5.26 0 a2.63 2.63 0 1 0 -5.26 0zM196.87 304.5 a2.63 2.63 0 1 0 5.26 0 a2.63 2.63 0 1 0 -5.26 0zM469.87 283.5 a2.63 2.63 0 1 0 5.26 0 a2.63 2.63 0 1 0 -5.26 0zM448.87 262.5 a2.63 2.63 0 1 0 5.26 0 a2.63 2.63 0 1 0 -5.26 0zM238.87 262.5 a2.63 2.63 0 1 0 5.26 0 a2.63 2.63 0 1 0 -5.26 0zM700.87 283.5 a2.63 2.63 0 1 0 5.26 0 a2.63 2.63 0 1 0 -5.26 0zM637.87 283.5 a2.63 2.63 0 1 0 5.26 0 a2.63 2.63 0 1 0 -5.26 0zM385.87 283.5 a2.63 2.63 0 1 0 5.26 0 a2.63 2.63 0 1 0 -5.26 0z" fill="black"></path><path d="M364.87 178.5 a2.63 2.63 0 1 0 5.26 0 a2.63 2.63 0 1 0 -5.26 0zM28.87 241.5 a2.63 2.63 0 1 0 5.26 0 a2.63 2.63 0 1 0 -5.26 0z" fill="black"></path><path d="M721.87 367.5 a2.63 2.63 0 1 0 5.26 0 a2.63 2.63 0 1 0 -5.26 0zM721.87 388.5 a2.63 2.63 0 1 0 5.26 0 a2.63 2.63 0 1 0 -5.26 0zM721.87 346.5 a2.63 2.63 0 1 0 5.26 0 a2.63 2.63 0 1 0 -5.26 0zM679.87 388.5 a2.63 2.63 0 1 0 5.26 0 a2.63 2.63 0 1 0 -5.26 0zM574.87 388.5 a2.63 2.63 0 1 0 5.26 0 a2.63 2.63 0 1 0 -5.26 0zM259.87 325.5 a2.63 2.63 0 1 0 5.26 0 a2.63 2.63 0 1 0 -5.26 0zM511.87 388.5 a2.63 2.63 0 1 0 5.26 0 a2.63 2.63 0 1 0 -5.26 0zM343.87 346.5 a2.63 2.63 0 1 0 5.26 0 a2.63 2.63 0 1 0 -5.26 0zM217.87 325.5 a2.63 2.63 0 1 0 5.26 0 a2.63 2.63 0 1 0 -5.26 0z" fill="black"></path><path d="M679.87 136.5 a2.63 2.63 0 1 0 5.26 0 a2.63 2.63 0 1 0 -5.26 0zM385.87 136.5 a2.63 2.63 0 1 0 5.26 0 a2.63 2.63 0 1 0 -5.26 0zM511.87 157.5 a2.63 2.63 0 1 0 5.26 0 a2.63 2.63 0 1 0 -5.26 0zM658.87 115.5 a2.63 2.63 0 1 0 5.26 0 a2.63 2.63 0 1 0 -5.26 0zM364.87 115.5 a2.63 2.63 0 1 0 5.26 0 a2.63 2.63 0 1 0 -5.26 0zM238.87 157.5 a2.63 2.63 0 1 0 5.26 0 a2.63 2.63 0 1 0 -5.26 0zM616.87 157.5 a2.63 2.63 0 1 0 5.26 0 a2.63 2.63 0 1 0 -5.26 0zM112.87 178.5 a2.63 2.63 0 1 0 5.26 0 a2.63 2.63 0 1 0 -5.26 0zM595.87 115.5 a2.63 2.63 0 1 0 5.26 0 a2.63 2.63 0 1 0 -5.26 0z" fill="black"></path><path d="M280.87 325.5 a2.63 2.63 0 1 0 5.26 0 a2.63 2.63 0 1 0 -5.26 0zM280.87 346.5 a2.63 2.63 0 1 0 5.26 0 a2.63 2.63 0 1 0 -5.26 0z" fill="black"></path><path d="M259.87 157.5 a2.63 2.63 0 1 0 5.26 0 a2.63 2.63 0 1 0 -5.26 0zM217.87 115.5 a2.63 2.63 0 1 0 5.26 0 a2.63 2.63 0 1 0 -5.26 0zM133.87 157.5 a2.63 2.63 0 1 0 5.26 0 a2.63 2.63 0 1 0 -5.26 0zM259.87 136.5 a2.63 2.63 0 1 0 5.26 0 a2.63 2.63 0 1 0 -5.26 0z" fill="black"></path><path d="M826.87 409.5 a2.63 2.63 0 1 0 5.26 0 a2.63 2.63 0 1 0 -5.26 0zM259.87 388.5 a2.63 2.63 0 1 0 5.26 0 a2.63 2.63 0 1 0 -5.26 0zM616.87 409.5 a2.63 2.63 0 1 0 5.26 0 a2.63 2.63 0 1 0 -5.26 0zM364.87 388.5 a2.63 2.63 0 1 0 5.26 0 a2.63 2.63 0 1 0 -5.26 0zM238.87 409.5 a2.63 2.63 0 1 0 5.26 0 a2.63 2.63 0 1 0 -5.26 0zM889.87 451.5 a2.63 2.63 0 1 0 5.26 0 a2.63 2.63 0 1 0 -5.26 0zM469.87 409.5 a2.63 2.63 0 1 0 5.26 0 a2.63 2.63 0 1 0 -5.26 0zM721.87 451.5 a2.63 2.63 0 1 0 5.26 0 a2.63 2.63 0 1 0 -5.26 0zM364.87 409.5 a2.63 2.63 0 1 0 5.26 0 a2.63 2.63 0 1 0 -5.26 0zM553.87 430.5 a2.63 2.63 0 1 0 5.26 0 a2.63 2.63 0 1 0 -5.26 0zM637.87 451.5 a2.63 2.63 0 1 0 5.26 0 a2.63 2.63 0 1 0 -5.26 0z" fill="black"></path><path d="M217.87 94.5 a2.63 2.63 0 1 0 5.26 0 a2.63 2.63 0 1 0 -5.26 0zM91.87 136.5 a2.63 2.63 0 1 0 5.26 0 a2.63 2.63 0 1 0 -5.26 0zM196.87 115.5 a2.63 2.63 0 1 0 5.26 0 a2.63 2.63 0 1 0 -5.26 0zM154.87 94.5 a2.63 2.63 0 1 0 5.26 0 a2.63 2.63 0 1 0 -5.26 0z" fill="black"></path><path d="M28.87 388.5 a2.63 2.63 0 1 0 5.26 0 a2.63 2.63 0 1 0 -5.26 0zM91.87 409.5 a2.63 2.63 0 1 0 5.26 0 a2.63 2.63 0 1 0 -5.26 0z" fill="black"></path><path d="M1393.87 115.5 a2.63 2.63 0 1 0 5.26 0 a2.63 2.63 0 1 0 -5.26 0zM469.87 52.5 a2.63 2.63 0 1 0 5.26 0 a2.63 2.63 0 1 0 -5.26 0zM553.87 115.5 a2.63 2.63 0 1 0 5.26 0 a2.63 2.63 0 1 0 -5.26 0zM868.87 136.5 a2.63 2.63 0 1 0 5.26 0 a2.63 2.63 0 1 0 -5.26 0zM1057.87 136.5 a2.63 2.63 0 1 0 5.26 0 a2.63 2.63 0 1 0 -5.26 0zM889.87 94.5 a2.63 2.63 0 1 0 5.26 0 a2.63 2.63 0 1 0 -5.26 0zM847.87 73.5 a2.63 2.63 0 1 0 5.26 0 a2.63 2.63 0 1 0 -5.26 0zM217.87 52.5 a2.63 2.63 0 1 0 5.26 0 a2.63 2.63 0 1 0 -5.26 0zM196.87 52.5 a2.63 2.63 0 1 0 5.26 0 a2.63 2.63 0 1 0 -5.26 0zM28.87 115.5 a2.63 2.63 0 1 0 5.26 0 a2.63 2.63 0 1 0 -5.26 0zM1036.87 94.5 a2.63 2.63 0 1 0 5.26 0 a2.63 2.63 0 1 0 -5.26 0zM868.87 52.5 a2.63 2.63 0 1 0 5.26 0 a2.63 2.63 0 1 0 -5.26 0zM1225.87 94.5 a2.63 2.63 0 1 0 5.26 0 a2.63 2.63 0 1 0 -5.26 0zM973.87 94.5 a2.63 2.63 0 1 0 5.26 0 a2.63 2.63 0 1 0 -5.26 0zM448.87 115.5 a2.63 2.63 0 1 0 5.26 0 a2.63 2.63 0 1 0 -5.26 0zM1204.87 136.5 a2.63 2.63 0 1 0 5.26 0 a2.63 2.63 0 1 0 -5.26 0zM406.87 115.5 a2.63 2.63 0 1 0 5.26 0 a2.63 2.63 0 1 0 -5.26 0zM1309.87 73.5 a2.63 2.63 0 1 0 5.26 0 a2.63 2.63 0 1 0 -5.26 0z" fill="black"></path></mask></defs></svg>