<svg xmlns="http://www.w3.org/2000/svg" version="1.1" xmlns:xlink="http://www.w3.org/1999/xlink" xmlns:svgjs="http://svgjs.dev/svgjs" width="1440" height="560" preserveAspectRatio="none" viewBox="0 0 1440 560"><g mask="url(&quot;#SvgjsMask1191&quot;)" fill="none"><rect width="1440" height="560" x="0" y="0" fill="url(&quot;#SvgjsLinearGradient1192&quot;)"></rect><path d="M920.89 365.77 a6.79 6.79 0 1 0 13.58 0 a6.79 6.79 0 1 0 -13.58 0z" stroke="#e73635"></path><path d="M81.03 503.48 a13.43 13.43 0 1 0 26.86 0 a13.43 13.43 0 1 0 -26.86 0z" stroke="#d3b714"></path><path d="M209.96 58.04a12.19 12.19 0 1 0-24.32 1.74z" stroke="#e73635"></path><path d="M758.11 358.73a8.32 8.32 0 1 0 14.87 7.47z" stroke="#e73635"></path><path d="M1104 95.11L1152.97 95.11L1152.97 144.08L1104 144.08z" fill="#037b0b"></path><path d="M996.51 532.07a53.47 53.47 0 1 0 86.49-62.9z" fill="#d3b714"></path><path d="M113.53 133.77L167.61 133.77L167.61 187.85L113.53 187.85z" fill="#d3b714"></path><path d="M1298.94 85.63a11.75 11.75 0 1 0-16.71-16.52z" fill="#d3b714"></path><path d="M777.72 181.18 a25.08 25.08 0 1 0 50.16 0 a25.08 25.08 0 1 0 -50.16 0z" fill="#d3b714"></path><path d="M606.03 366.2L640.49 366.2L640.49 400.66L606.03 400.66z" fill="#d3b714"></path><path d="M1037 301.98a33.26 33.26 0 1 0 63.64-19.36z" stroke="#e73635"></path><path d="M982.24 345.18L985.6 345.18L985.6 348.54L982.24 348.54z" stroke="#d3b714"></path><path d="M1274.64 332.1L1284.13 332.1L1284.13 336.83L1274.64 336.83z" fill="#e73635"></path><path d="M362.04 113.16L377.24 113.16L377.24 128.36L362.04 128.36z" stroke="#037b0b"></path><path d="M1241.92 96.71L1260.9 96.71L1260.9 121.79L1241.92 121.79z" fill="#e73635"></path><path d="M320.96 279.66L330.05 279.66L330.05 288.75L320.96 288.75z" stroke="#037b0b"></path><path d="M510.39 380.36L561.87 380.36L561.87 382.87L510.39 382.87z" stroke="#037b0b"></path><path d="M582.62 131.01L608.06 131.01L608.06 156.45L582.62 156.45z" fill="#037b0b"></path><path d="M132.56 413.21L139.85 413.21L139.85 445.39L132.56 445.39z" fill="#d3b714"></path><path d="M361.23 149.15L362.58 149.15L362.58 168.99L361.23 168.99z" fill="#037b0b"></path><path d="M760.94 477.15a32.34 32.34 0 1 0-28.11-58.25z" fill="#037b0b"></path><path d="M892.05 172.5 a2.09 2.09 0 1 0 4.18 0 a2.09 2.09 0 1 0 -4.18 0z" stroke="#d3b714"></path><path d="M988.78 72.71L1025.41 72.71L1025.41 125.32L988.78 125.32z" fill="#d3b714"></path><path d="M468.92 95.29a43.15 43.15 0 1 0-76.89 39.18z" stroke="#037b0b"></path><path d="M156.06 291.9 a31.8 31.8 0 1 0 63.6 0 a31.8 31.8 0 1 0 -63.6 0z" stroke="#d3b714"></path><path d="M712.7 545.42L730.76 545.42L730.76 564.02L712.7 564.02z" fill="#e73635"></path><path d="M715.8 421.25L766.7 421.25L766.7 455.02L715.8 455.02z" fill="#e73635"></path><path d="M1059.8 438.02a23.29 23.29 0 1 0-46.34-4.7z" stroke="#d3b714"></path><path d="M692.56 201.29L743.24 201.29L743.24 221.49L692.56 221.49z" fill="#037b0b"></path><path d="M1092.79 317.01a54.9 54.9 0 1 0-51.38 97.04z" stroke="#d3b714"></path><path d="M1032.51 481.89a46.29 46.29 0 1 0-30.71-87.34z" stroke="#037b0b"></path><path d="M536.93 132.7L549.9 132.7L549.9 145.67L536.93 145.67z" fill="#d3b714"></path><path d="M328.38 34.48a4.33 4.33 0 1 0-0.04-8.66z" stroke="#d3b714"></path></g><defs><mask id="SvgjsMask1191"><rect width="1440" height="560" fill="#ffffff"></rect></mask><linearGradient x1="15.28%" y1="-39.29%" x2="84.72%" y2="139.29%" gradientUnits="userSpaceOnUse" id="SvgjsLinearGradient1192"><stop stop-color="#0e2a47" offset="0"></stop><stop stop-color="rgba(186, 52, 52, 1)" offset="1"></stop></linearGradient></defs></svg>